%TF.GenerationSoftware,KiCad,Pcbnew,8.0.3*%
%TF.CreationDate,2024-07-23T23:43:33-05:00*%
%TF.ProjectId,kicad_timer,6b696361-645f-4746-996d-65722e6b6963,rev?*%
%TF.SameCoordinates,Original*%
%TF.FileFunction,Copper,L1,Top*%
%TF.FilePolarity,Positive*%
%FSLAX46Y46*%
G04 Gerber Fmt 4.6, Leading zero omitted, Abs format (unit mm)*
G04 Created by KiCad (PCBNEW 8.0.3) date 2024-07-23 23:43:33*
%MOMM*%
%LPD*%
G01*
G04 APERTURE LIST*
%TA.AperFunction,ComponentPad*%
%ADD10R,1.500000X1.500000*%
%TD*%
%TA.AperFunction,ComponentPad*%
%ADD11C,1.500000*%
%TD*%
%TA.AperFunction,ComponentPad*%
%ADD12O,1.700000X1.100000*%
%TD*%
%TA.AperFunction,ViaPad*%
%ADD13C,0.600000*%
%TD*%
%TA.AperFunction,Conductor*%
%ADD14C,0.200000*%
%TD*%
G04 APERTURE END LIST*
D10*
%TO.P,U3,1,e*%
%TO.N,Net-(U2-PB4)*%
X164592000Y-96843000D03*
D11*
%TO.P,U3,2,d*%
%TO.N,Net-(U2-PB3)*%
X162052000Y-96843000D03*
%TO.P,U3,3,DPX*%
%TO.N,unconnected-(U3-DPX-Pad3)*%
X159512000Y-96843000D03*
%TO.P,U3,4,c*%
%TO.N,Net-(U2-PB2)*%
X156972000Y-96843000D03*
%TO.P,U3,5,g*%
%TO.N,Net-(U2-XTAL1{slash}PB6)*%
X154432000Y-96843000D03*
%TO.P,U3,6,CA4*%
%TO.N,DIG4*%
X151892000Y-96843000D03*
%TO.P,U3,7,b*%
%TO.N,Net-(U2-PB1)*%
X151892000Y-112083000D03*
%TO.P,U3,8,CA3*%
%TO.N,DIG3*%
X154432000Y-112083000D03*
%TO.P,U3,9,CA2*%
%TO.N,DIG2*%
X156972000Y-112083000D03*
%TO.P,U3,10,f*%
%TO.N,Net-(U2-PB5)*%
X159512000Y-112083000D03*
%TO.P,U3,11,a*%
%TO.N,Net-(U2-PB0)*%
X162052000Y-112083000D03*
%TO.P,U3,12,CA1*%
%TO.N,DIG1*%
X164592000Y-112083000D03*
%TD*%
D10*
%TO.P,U1,1,e*%
%TO.N,Net-(U1-e)*%
X151892000Y-92583000D03*
D11*
%TO.P,U1,2,d*%
%TO.N,Net-(U1-d)*%
X154432000Y-92583000D03*
%TO.P,U1,3,DPX*%
%TO.N,unconnected-(U1-DPX-Pad3)*%
X156972000Y-92583000D03*
%TO.P,U1,4,c*%
%TO.N,Net-(U1-c)*%
X159512000Y-92583000D03*
%TO.P,U1,5,g*%
%TO.N,Net-(U1-g)*%
X162052000Y-92583000D03*
%TO.P,U1,6,CA4*%
%TO.N,DIG4*%
X164592000Y-92583000D03*
%TO.P,U1,7,b*%
%TO.N,Net-(U1-b)*%
X164592000Y-77343000D03*
%TO.P,U1,8,CA3*%
%TO.N,DIG3*%
X162052000Y-77343000D03*
%TO.P,U1,9,CA2*%
%TO.N,DIG2*%
X159512000Y-77343000D03*
%TO.P,U1,10,f*%
%TO.N,Net-(U1-f)*%
X156972000Y-77343000D03*
%TO.P,U1,11,a*%
%TO.N,Net-(U1-a)*%
X154432000Y-77343000D03*
%TO.P,U1,12,CA1*%
%TO.N,DIG1*%
X151892000Y-77343000D03*
%TD*%
D12*
%TO.P,J1,S1,SHIELD*%
%TO.N,Net-(J1-SHIELD)*%
X130105000Y-98296000D03*
X133905000Y-98296000D03*
X130105000Y-89656000D03*
X133905000Y-89656000D03*
%TD*%
D13*
%TO.N,Net-(U1-a)*%
X157226000Y-83820000D03*
X166624000Y-92075000D03*
%TO.N,Net-(U1-b)*%
X167513000Y-91440000D03*
X166179500Y-84899500D03*
%TO.N,Net-(U1-g)*%
X174307500Y-88455500D03*
X169672000Y-88519000D03*
%TO.N,Vcc*%
X167005000Y-96647000D03*
X148971000Y-94742000D03*
%TO.N,DIG4*%
X175444000Y-100965000D03*
X166116000Y-104902000D03*
%TO.N,Net-(U2-XTAL1{slash}PB6)*%
X181356000Y-98298000D03*
X168656000Y-104013000D03*
%TO.N,Net-(U2-PB5)*%
X168402000Y-99060000D03*
X160120500Y-107288500D03*
%TO.N,D3*%
X180467000Y-91782997D03*
X182499000Y-93345000D03*
%TO.N,DIG1*%
X174371000Y-103505000D03*
X180467000Y-92583000D03*
%TD*%
D14*
%TO.N,DIG1*%
X160944000Y-115731000D02*
X164592000Y-112083000D01*
X160002205Y-115731000D02*
X160944000Y-115731000D01*
X149987000Y-115824000D02*
X159909205Y-115824000D01*
X146158000Y-111995000D02*
X149987000Y-115824000D01*
X159909205Y-115824000D02*
X160002205Y-115731000D01*
X146158000Y-83077000D02*
X146158000Y-111995000D01*
X151892000Y-77343000D02*
X146158000Y-83077000D01*
%TO.N,Net-(U1-a)*%
X158369000Y-83820000D02*
X157226000Y-83820000D01*
X166624000Y-92075000D02*
X158369000Y-83820000D01*
%TO.N,Net-(U1-g)*%
X174244000Y-88519000D02*
X174307500Y-88455500D01*
X169672000Y-88519000D02*
X174244000Y-88519000D01*
%TO.N,Net-(U1-b)*%
X167513000Y-86233000D02*
X167513000Y-91440000D01*
X166179500Y-84899500D02*
X167513000Y-86233000D01*
%TO.N,DIG2*%
X150749000Y-114173000D02*
X154882000Y-114173000D01*
X146558000Y-109982000D02*
X150749000Y-114173000D01*
X146558000Y-90297000D02*
X146558000Y-109982000D01*
X159512000Y-77343000D02*
X146558000Y-90297000D01*
X154882000Y-114173000D02*
X156972000Y-112083000D01*
%TO.N,DIG3*%
X148371000Y-106022000D02*
X154432000Y-112083000D01*
X148371000Y-91024000D02*
X148371000Y-106022000D01*
X162052000Y-77343000D02*
X148371000Y-91024000D01*
%TO.N,Net-(U2-XTAL1{slash}PB6)*%
X181356000Y-99441000D02*
X181356000Y-98298000D01*
X176692000Y-104105000D02*
X181356000Y-99441000D01*
X168748000Y-104105000D02*
X176692000Y-104105000D01*
X168656000Y-104013000D02*
X168748000Y-104105000D01*
%TO.N,DIG4*%
X169164000Y-101854000D02*
X166116000Y-104902000D01*
X174555000Y-101854000D02*
X169164000Y-101854000D01*
X175444000Y-100965000D02*
X174555000Y-101854000D01*
%TO.N,Vcc*%
X165100000Y-94742000D02*
X167005000Y-96647000D01*
X148971000Y-94742000D02*
X165100000Y-94742000D01*
%TO.N,Net-(U2-PB5)*%
X160173500Y-107288500D02*
X160120500Y-107288500D01*
X168402000Y-99060000D02*
X160173500Y-107288500D01*
%TO.N,D3*%
X180936997Y-91782997D02*
X180467000Y-91782997D01*
X182499000Y-93345000D02*
X180936997Y-91782997D01*
%TO.N,DIG1*%
X180467000Y-97409000D02*
X180467000Y-92583000D01*
X174371000Y-103505000D02*
X180467000Y-97409000D01*
%TD*%
M02*
