%TF.GenerationSoftware,KiCad,Pcbnew,8.0.3*%
%TF.CreationDate,2024-07-23T23:43:33-05:00*%
%TF.ProjectId,kicad_timer,6b696361-645f-4746-996d-65722e6b6963,rev?*%
%TF.SameCoordinates,Original*%
%TF.FileFunction,Copper,L2,Bot*%
%TF.FilePolarity,Positive*%
%FSLAX46Y46*%
G04 Gerber Fmt 4.6, Leading zero omitted, Abs format (unit mm)*
G04 Created by KiCad (PCBNEW 8.0.3) date 2024-07-23 23:43:33*
%MOMM*%
%LPD*%
G01*
G04 APERTURE LIST*
G04 Aperture macros list*
%AMRoundRect*
0 Rectangle with rounded corners*
0 $1 Rounding radius*
0 $2 $3 $4 $5 $6 $7 $8 $9 X,Y pos of 4 corners*
0 Add a 4 corners polygon primitive as box body*
4,1,4,$2,$3,$4,$5,$6,$7,$8,$9,$2,$3,0*
0 Add four circle primitives for the rounded corners*
1,1,$1+$1,$2,$3*
1,1,$1+$1,$4,$5*
1,1,$1+$1,$6,$7*
1,1,$1+$1,$8,$9*
0 Add four rect primitives between the rounded corners*
20,1,$1+$1,$2,$3,$4,$5,0*
20,1,$1+$1,$4,$5,$6,$7,0*
20,1,$1+$1,$6,$7,$8,$9,0*
20,1,$1+$1,$8,$9,$2,$3,0*%
G04 Aperture macros list end*
%TA.AperFunction,ComponentPad*%
%ADD10R,1.500000X1.500000*%
%TD*%
%TA.AperFunction,ComponentPad*%
%ADD11C,1.500000*%
%TD*%
%TA.AperFunction,SMDPad,CuDef*%
%ADD12R,2.550000X2.500000*%
%TD*%
%TA.AperFunction,SMDPad,CuDef*%
%ADD13RoundRect,0.100000X-0.130000X-0.100000X0.130000X-0.100000X0.130000X0.100000X-0.130000X0.100000X0*%
%TD*%
%TA.AperFunction,SMDPad,CuDef*%
%ADD14RoundRect,0.100000X-0.100000X0.130000X-0.100000X-0.130000X0.100000X-0.130000X0.100000X0.130000X0*%
%TD*%
%TA.AperFunction,SMDPad,CuDef*%
%ADD15RoundRect,0.100000X0.130000X0.100000X-0.130000X0.100000X-0.130000X-0.100000X0.130000X-0.100000X0*%
%TD*%
%TA.AperFunction,SMDPad,CuDef*%
%ADD16R,1.000000X0.900000*%
%TD*%
%TA.AperFunction,SMDPad,CuDef*%
%ADD17R,0.550000X1.700000*%
%TD*%
%TA.AperFunction,SMDPad,CuDef*%
%ADD18RoundRect,0.175000X0.425000X-0.175000X0.425000X0.175000X-0.425000X0.175000X-0.425000X-0.175000X0*%
%TD*%
%TA.AperFunction,SMDPad,CuDef*%
%ADD19RoundRect,0.190000X-0.410000X0.190000X-0.410000X-0.190000X0.410000X-0.190000X0.410000X0.190000X0*%
%TD*%
%TA.AperFunction,SMDPad,CuDef*%
%ADD20RoundRect,0.200000X-0.400000X0.200000X-0.400000X-0.200000X0.400000X-0.200000X0.400000X0.200000X0*%
%TD*%
%TA.AperFunction,SMDPad,CuDef*%
%ADD21RoundRect,0.175000X-0.425000X0.175000X-0.425000X-0.175000X0.425000X-0.175000X0.425000X0.175000X0*%
%TD*%
%TA.AperFunction,SMDPad,CuDef*%
%ADD22RoundRect,0.190000X0.410000X-0.190000X0.410000X0.190000X-0.410000X0.190000X-0.410000X-0.190000X0*%
%TD*%
%TA.AperFunction,SMDPad,CuDef*%
%ADD23RoundRect,0.200000X0.400000X-0.200000X0.400000X0.200000X-0.400000X0.200000X-0.400000X-0.200000X0*%
%TD*%
%TA.AperFunction,ComponentPad*%
%ADD24O,1.700000X1.100000*%
%TD*%
%TA.AperFunction,SMDPad,CuDef*%
%ADD25R,1.600000X0.550000*%
%TD*%
%TA.AperFunction,SMDPad,CuDef*%
%ADD26R,0.550000X1.600000*%
%TD*%
%TA.AperFunction,ViaPad*%
%ADD27C,0.600000*%
%TD*%
%TA.AperFunction,Conductor*%
%ADD28C,0.200000*%
%TD*%
G04 APERTURE END LIST*
D10*
%TO.P,U3,1,e*%
%TO.N,Net-(U2-PB4)*%
X164592000Y-96843000D03*
D11*
%TO.P,U3,2,d*%
%TO.N,Net-(U2-PB3)*%
X162052000Y-96843000D03*
%TO.P,U3,3,DPX*%
%TO.N,unconnected-(U3-DPX-Pad3)*%
X159512000Y-96843000D03*
%TO.P,U3,4,c*%
%TO.N,Net-(U2-PB2)*%
X156972000Y-96843000D03*
%TO.P,U3,5,g*%
%TO.N,Net-(U2-XTAL1{slash}PB6)*%
X154432000Y-96843000D03*
%TO.P,U3,6,CA4*%
%TO.N,DIG4*%
X151892000Y-96843000D03*
%TO.P,U3,7,b*%
%TO.N,Net-(U2-PB1)*%
X151892000Y-112083000D03*
%TO.P,U3,8,CA3*%
%TO.N,DIG3*%
X154432000Y-112083000D03*
%TO.P,U3,9,CA2*%
%TO.N,DIG2*%
X156972000Y-112083000D03*
%TO.P,U3,10,f*%
%TO.N,Net-(U2-PB5)*%
X159512000Y-112083000D03*
%TO.P,U3,11,a*%
%TO.N,Net-(U2-PB0)*%
X162052000Y-112083000D03*
%TO.P,U3,12,CA1*%
%TO.N,DIG1*%
X164592000Y-112083000D03*
%TD*%
D10*
%TO.P,U1,1,e*%
%TO.N,Net-(U1-e)*%
X151892000Y-92583000D03*
D11*
%TO.P,U1,2,d*%
%TO.N,Net-(U1-d)*%
X154432000Y-92583000D03*
%TO.P,U1,3,DPX*%
%TO.N,unconnected-(U1-DPX-Pad3)*%
X156972000Y-92583000D03*
%TO.P,U1,4,c*%
%TO.N,Net-(U1-c)*%
X159512000Y-92583000D03*
%TO.P,U1,5,g*%
%TO.N,Net-(U1-g)*%
X162052000Y-92583000D03*
%TO.P,U1,6,CA4*%
%TO.N,DIG4*%
X164592000Y-92583000D03*
%TO.P,U1,7,b*%
%TO.N,Net-(U1-b)*%
X164592000Y-77343000D03*
%TO.P,U1,8,CA3*%
%TO.N,DIG3*%
X162052000Y-77343000D03*
%TO.P,U1,9,CA2*%
%TO.N,DIG2*%
X159512000Y-77343000D03*
%TO.P,U1,10,f*%
%TO.N,Net-(U1-f)*%
X156972000Y-77343000D03*
%TO.P,U1,11,a*%
%TO.N,Net-(U1-a)*%
X154432000Y-77343000D03*
%TO.P,U1,12,CA1*%
%TO.N,DIG1*%
X151892000Y-77343000D03*
%TD*%
D12*
%TO.P,S3,1,1*%
%TO.N,GND*%
X151143500Y-120121000D03*
%TO.P,S3,2,2*%
%TO.N,D3*%
X164070500Y-117581000D03*
%TD*%
D13*
%TO.P,R2,1*%
%TO.N,D2*%
X138745000Y-89789000D03*
%TO.P,R2,2*%
%TO.N,Vcc*%
X139385000Y-89789000D03*
%TD*%
D14*
%TO.P,R5,1*%
%TO.N,Net-(J1-CC2)*%
X136017000Y-93533000D03*
%TO.P,R5,2*%
%TO.N,GND*%
X136017000Y-94173000D03*
%TD*%
D15*
%TO.P,R1,1*%
%TO.N,D1*%
X139385000Y-88039000D03*
%TO.P,R1,2*%
%TO.N,Vcc*%
X138745000Y-88039000D03*
%TD*%
D12*
%TO.P,S2,1,1*%
%TO.N,GND*%
X165327000Y-69394821D03*
%TO.P,S2,2,2*%
%TO.N,D2*%
X152400000Y-71934821D03*
%TD*%
D16*
%TO.P,S1,1,1*%
%TO.N,GND*%
X134328000Y-82659000D03*
X134328000Y-86759000D03*
%TO.P,S1,2,2*%
%TO.N,D1*%
X135928000Y-82659000D03*
X135928000Y-86759000D03*
D17*
%TO.P,S1,SH*%
%TO.N,N/C*%
X133703000Y-84709000D03*
%TD*%
D14*
%TO.P,R4,1*%
%TO.N,Net-(J1-CC1)*%
X135890000Y-96073000D03*
%TO.P,R4,2*%
%TO.N,GND*%
X135890000Y-96713000D03*
%TD*%
%TO.P,R6,1*%
%TO.N,Net-(J1-SHIELD)*%
X136017000Y-90612000D03*
%TO.P,R6,2*%
%TO.N,GND*%
X136017000Y-91252000D03*
%TD*%
D16*
%TO.P,S4,1,1*%
%TO.N,GND*%
X134328000Y-77071000D03*
X134328000Y-81171000D03*
%TO.P,S4,2,2*%
%TO.N,D2*%
X135928000Y-77071000D03*
X135928000Y-81171000D03*
D17*
%TO.P,S4,SH*%
%TO.N,N/C*%
X133703000Y-79121000D03*
%TD*%
D18*
%TO.P,J1,A5,CC1*%
%TO.N,Net-(J1-CC1)*%
X133985000Y-94476000D03*
D19*
%TO.P,J1,A9,VBUS*%
%TO.N,Vcc*%
X133985000Y-92456000D03*
D20*
%TO.P,J1,A12,GND*%
%TO.N,GND*%
X133985000Y-91226000D03*
D21*
%TO.P,J1,B5,CC2*%
%TO.N,Net-(J1-CC2)*%
X133985000Y-93476000D03*
D22*
%TO.P,J1,B9,VBUS*%
%TO.N,Vcc*%
X133985000Y-95496000D03*
D23*
%TO.P,J1,B12,GND*%
%TO.N,GND*%
X133985000Y-96726000D03*
D24*
%TO.P,J1,S1,SHIELD*%
%TO.N,Net-(J1-SHIELD)*%
X130105000Y-98296000D03*
X133905000Y-98296000D03*
X130105000Y-89656000D03*
X133905000Y-89656000D03*
%TD*%
D25*
%TO.P,U2,1,PD3*%
%TO.N,D3*%
X178494000Y-91815000D03*
%TO.P,U2,2,PD4*%
%TO.N,DIG1*%
X178494000Y-92615000D03*
%TO.P,U2,3,GND*%
%TO.N,GND*%
X178494000Y-93415000D03*
%TO.P,U2,4,VCC*%
%TO.N,Vcc*%
X178494000Y-94215000D03*
%TO.P,U2,5,GND*%
%TO.N,GND*%
X178494000Y-95015000D03*
%TO.P,U2,6,VCC*%
%TO.N,Vcc*%
X178494000Y-95815000D03*
%TO.P,U2,7,XTAL1/PB6*%
%TO.N,Net-(U2-XTAL1{slash}PB6)*%
X178494000Y-96615000D03*
%TO.P,U2,8,XTAL2/PB7*%
%TO.N,unconnected-(U2-XTAL2{slash}PB7-Pad8)*%
X178494000Y-97415000D03*
D26*
%TO.P,U2,9,PD5*%
%TO.N,DIG2*%
X177044000Y-98865000D03*
%TO.P,U2,10,PD6*%
%TO.N,DIG3*%
X176244000Y-98865000D03*
%TO.P,U2,11,PD7*%
%TO.N,DIG4*%
X175444000Y-98865000D03*
%TO.P,U2,12,PB0*%
%TO.N,Net-(U2-PB0)*%
X174644000Y-98865000D03*
%TO.P,U2,13,PB1*%
%TO.N,Net-(U2-PB1)*%
X173844000Y-98865000D03*
%TO.P,U2,14,PB2*%
%TO.N,Net-(U2-PB2)*%
X173044000Y-98865000D03*
%TO.P,U2,15,PB3*%
%TO.N,Net-(U2-PB3)*%
X172244000Y-98865000D03*
%TO.P,U2,16,PB4*%
%TO.N,Net-(U2-PB4)*%
X171444000Y-98865000D03*
D25*
%TO.P,U2,17,PB5*%
%TO.N,Net-(U2-PB5)*%
X169994000Y-97415000D03*
%TO.P,U2,18,AVCC*%
%TO.N,Vcc*%
X169994000Y-96615000D03*
%TO.P,U2,19,ADC6*%
%TO.N,unconnected-(U2-ADC6-Pad19)*%
X169994000Y-95815000D03*
%TO.P,U2,20,AREF*%
%TO.N,unconnected-(U2-AREF-Pad20)*%
X169994000Y-95015000D03*
%TO.P,U2,21,GND*%
%TO.N,GND*%
X169994000Y-94215000D03*
%TO.P,U2,22,ADC7*%
%TO.N,unconnected-(U2-ADC7-Pad22)*%
X169994000Y-93415000D03*
%TO.P,U2,23,PC0*%
%TO.N,Net-(U1-a)*%
X169994000Y-92615000D03*
%TO.P,U2,24,PC1*%
%TO.N,Net-(U1-b)*%
X169994000Y-91815000D03*
D26*
%TO.P,U2,25,PC2*%
%TO.N,Net-(U1-c)*%
X171444000Y-90365000D03*
%TO.P,U2,26,PC3*%
%TO.N,Net-(U1-d)*%
X172244000Y-90365000D03*
%TO.P,U2,27,PC4*%
%TO.N,Net-(U1-e)*%
X173044000Y-90365000D03*
%TO.P,U2,28,PC5*%
%TO.N,Net-(U1-f)*%
X173844000Y-90365000D03*
%TO.P,U2,29,~{RESET}/PC6*%
%TO.N,Net-(U1-g)*%
X174644000Y-90365000D03*
%TO.P,U2,30,PD0*%
%TO.N,unconnected-(U2-PD0-Pad30)*%
X175444000Y-90365000D03*
%TO.P,U2,31,PD1*%
%TO.N,D1*%
X176244000Y-90365000D03*
%TO.P,U2,32,PD2*%
%TO.N,D2*%
X177044000Y-90365000D03*
%TD*%
D15*
%TO.P,R3,1*%
%TO.N,D3*%
X139385000Y-91539000D03*
%TO.P,R3,2*%
%TO.N,Vcc*%
X138745000Y-91539000D03*
%TD*%
D27*
%TO.N,Net-(U1-a)*%
X157226000Y-83820000D03*
X166624000Y-92075000D03*
%TO.N,Net-(U1-b)*%
X167513000Y-91440000D03*
X166179500Y-84899500D03*
%TO.N,Net-(U1-g)*%
X174307500Y-88455500D03*
X169672000Y-88519000D03*
%TO.N,Vcc*%
X167005000Y-96647000D03*
X148971000Y-94742000D03*
%TO.N,DIG4*%
X175444000Y-100965000D03*
X166116000Y-104902000D03*
%TO.N,Net-(U2-XTAL1{slash}PB6)*%
X181356000Y-98298000D03*
X168656000Y-104013000D03*
%TO.N,Net-(U2-PB5)*%
X168402000Y-99060000D03*
X160120500Y-107288500D03*
%TO.N,D3*%
X180467000Y-91782997D03*
X182499000Y-93345000D03*
%TO.N,DIG1*%
X174371000Y-103505000D03*
X180467000Y-92583000D03*
%TD*%
D28*
%TO.N,Net-(U1-a)*%
X154432000Y-81026000D02*
X154432000Y-77343000D01*
X157226000Y-83820000D02*
X154432000Y-81026000D01*
X169994000Y-92615000D02*
X167164000Y-92615000D01*
X167164000Y-92615000D02*
X166624000Y-92075000D01*
%TO.N,Net-(U1-g)*%
X169672000Y-88519000D02*
X166116000Y-88519000D01*
X166116000Y-88519000D02*
X162052000Y-92583000D01*
X174307500Y-88455500D02*
X174644000Y-88792000D01*
X174644000Y-88792000D02*
X174644000Y-90365000D01*
%TO.N,Net-(U1-f)*%
X173844000Y-89599314D02*
X173844000Y-90365000D01*
X170966686Y-86722000D02*
X173844000Y-89599314D01*
X166351000Y-86722000D02*
X170966686Y-86722000D01*
X156972000Y-77343000D02*
X166351000Y-86722000D01*
%TO.N,Net-(U1-b)*%
X166179500Y-84899500D02*
X164592000Y-83312000D01*
X164592000Y-83312000D02*
X164592000Y-77343000D01*
X167888000Y-91815000D02*
X169994000Y-91815000D01*
X167513000Y-91440000D02*
X167888000Y-91815000D01*
%TO.N,Net-(U1-c)*%
X161163000Y-94234000D02*
X159512000Y-92583000D01*
X162325925Y-94234000D02*
X161163000Y-94234000D01*
X163322000Y-91948000D02*
X163322000Y-93237925D01*
X164973000Y-90297000D02*
X163322000Y-91948000D01*
X170307000Y-90297000D02*
X164973000Y-90297000D01*
X163322000Y-93237925D02*
X162325925Y-94234000D01*
X171376000Y-90297000D02*
X171444000Y-90365000D01*
X170307000Y-90297000D02*
X171376000Y-90297000D01*
%TO.N,Net-(U2-XTAL1{slash}PB6)*%
X161475000Y-103886000D02*
X154432000Y-96843000D01*
X168656000Y-104013000D02*
X168529000Y-103886000D01*
X168529000Y-103886000D02*
X161475000Y-103886000D01*
%TO.N,DIG4*%
X175444000Y-100965000D02*
X175444000Y-98865000D01*
%TO.N,Net-(U1-d)*%
X172244000Y-89313000D02*
X172244000Y-90365000D01*
X170561000Y-87630000D02*
X172244000Y-89313000D01*
X159385000Y-87630000D02*
X170561000Y-87630000D01*
X154432000Y-92583000D02*
X159385000Y-87630000D01*
%TO.N,Net-(U1-e)*%
X173044000Y-89365000D02*
X173044000Y-90365000D01*
X170801000Y-87122000D02*
X173044000Y-89365000D01*
X157353000Y-87122000D02*
X170801000Y-87122000D01*
X151892000Y-92583000D02*
X157353000Y-87122000D01*
%TO.N,DIG4*%
X153993000Y-94742000D02*
X151892000Y-96843000D01*
X164592000Y-93472000D02*
X163322000Y-94742000D01*
X164592000Y-92583000D02*
X164592000Y-93472000D01*
X163322000Y-94742000D02*
X153993000Y-94742000D01*
%TO.N,Vcc*%
X167037000Y-96615000D02*
X169994000Y-96615000D01*
X167005000Y-96647000D02*
X167037000Y-96615000D01*
X144018000Y-89789000D02*
X148971000Y-94742000D01*
X139385000Y-89789000D02*
X144018000Y-89789000D01*
%TO.N,DIG4*%
X159951000Y-104902000D02*
X166116000Y-104902000D01*
X151892000Y-96843000D02*
X159951000Y-104902000D01*
%TO.N,Net-(U2-XTAL1{slash}PB6)*%
X179927000Y-96615000D02*
X178494000Y-96615000D01*
X181356000Y-98298000D02*
X181356000Y-98044000D01*
X181356000Y-98044000D02*
X179927000Y-96615000D01*
%TO.N,Net-(U2-PB1)*%
X158184000Y-105791000D02*
X168656000Y-105791000D01*
X173844000Y-100603000D02*
X173844000Y-98865000D01*
X151892000Y-112083000D02*
X158184000Y-105791000D01*
X168656000Y-105791000D02*
X173844000Y-100603000D01*
%TO.N,Net-(U2-PB5)*%
X160120500Y-107288500D02*
X159512000Y-107897000D01*
X159512000Y-107897000D02*
X159512000Y-112083000D01*
%TO.N,Net-(U2-PB2)*%
X173044000Y-100006000D02*
X173044000Y-98865000D01*
X171958000Y-101092000D02*
X173044000Y-100006000D01*
X161221000Y-101092000D02*
X171958000Y-101092000D01*
X156972000Y-96843000D02*
X161221000Y-101092000D01*
%TO.N,Net-(U2-PB3)*%
X171704000Y-100203000D02*
X172244000Y-99663000D01*
X165412000Y-100203000D02*
X171704000Y-100203000D01*
X172244000Y-99663000D02*
X172244000Y-98865000D01*
X162052000Y-96843000D02*
X165412000Y-100203000D01*
%TO.N,Net-(U2-PB4)*%
X170649000Y-99660000D02*
X171444000Y-98865000D01*
X167409000Y-99660000D02*
X170649000Y-99660000D01*
X164592000Y-96843000D02*
X167409000Y-99660000D01*
%TO.N,Net-(U2-PB5)*%
X168402000Y-99007000D02*
X169994000Y-97415000D01*
X168402000Y-99060000D02*
X168402000Y-99007000D01*
%TO.N,D3*%
X178526003Y-91782997D02*
X178494000Y-91815000D01*
X180467000Y-91782997D02*
X178526003Y-91782997D01*
X182499000Y-99152500D02*
X182499000Y-93345000D01*
X164070500Y-117581000D02*
X182499000Y-99152500D01*
%TO.N,DIG1*%
X178526000Y-92583000D02*
X178494000Y-92615000D01*
X180467000Y-92583000D02*
X178526000Y-92583000D01*
X165793000Y-112083000D02*
X174371000Y-103505000D01*
X164592000Y-112083000D02*
X165793000Y-112083000D01*
%TO.N,DIG3*%
X158242000Y-112512500D02*
X159140500Y-113411000D01*
X159140500Y-113411000D02*
X165735000Y-113411000D01*
X158242000Y-111252000D02*
X158242000Y-112512500D01*
X157480000Y-110490000D02*
X158242000Y-111252000D01*
X165735000Y-113411000D02*
X176244000Y-102902000D01*
X156025000Y-110490000D02*
X157480000Y-110490000D01*
X176244000Y-102902000D02*
X176244000Y-98865000D01*
X154432000Y-112083000D02*
X156025000Y-110490000D01*
%TO.N,Net-(U2-PB0)*%
X174644000Y-101200000D02*
X174644000Y-98865000D01*
X167132000Y-108712000D02*
X174644000Y-101200000D01*
X162052000Y-112083000D02*
X165423000Y-108712000D01*
X165423000Y-108712000D02*
X167132000Y-108712000D01*
%TO.N,DIG2*%
X177044000Y-103626000D02*
X177044000Y-98865000D01*
X158935000Y-114046000D02*
X166624000Y-114046000D01*
X166624000Y-114046000D02*
X177044000Y-103626000D01*
X156972000Y-112083000D02*
X158935000Y-114046000D01*
%TO.N,GND*%
X181991000Y-86058821D02*
X165327000Y-69394821D01*
X178494000Y-93415000D02*
X180651000Y-93415000D01*
X180651000Y-93415000D02*
X181991000Y-92075000D01*
X181991000Y-92075000D02*
X181991000Y-86058821D01*
%TO.N,Vcc*%
X179559000Y-94215000D02*
X178494000Y-94215000D01*
X179594000Y-94250000D02*
X179559000Y-94215000D01*
X179594000Y-95715000D02*
X179594000Y-94250000D01*
X179494000Y-95815000D02*
X179594000Y-95715000D01*
X178494000Y-95815000D02*
X179494000Y-95815000D01*
X171794000Y-95815000D02*
X178494000Y-95815000D01*
X170994000Y-96615000D02*
X171794000Y-95815000D01*
X169994000Y-96615000D02*
X170994000Y-96615000D01*
%TO.N,GND*%
X135991000Y-91226000D02*
X136017000Y-91252000D01*
X136205000Y-96713000D02*
X135890000Y-96713000D01*
X177457000Y-95015000D02*
X178494000Y-95015000D01*
X138247000Y-73152000D02*
X141986000Y-73152000D01*
X136390000Y-96528000D02*
X136205000Y-96713000D01*
X133625314Y-96726000D02*
X132061000Y-95161686D01*
X136017000Y-94173000D02*
X136390000Y-94546000D01*
X176657000Y-94215000D02*
X177457000Y-95015000D01*
X136017000Y-91252000D02*
X136205000Y-91252000D01*
X136517000Y-89908000D02*
X134328000Y-87719000D01*
X134328000Y-87719000D02*
X134328000Y-86759000D01*
X169994000Y-94215000D02*
X176657000Y-94215000D01*
X136517000Y-90940000D02*
X136517000Y-89908000D01*
X132061000Y-92475000D02*
X133310000Y-91226000D01*
X176657000Y-94215000D02*
X176819000Y-94215000D01*
X136205000Y-105182500D02*
X151143500Y-120121000D01*
X134328000Y-77071000D02*
X138247000Y-73152000D01*
X136205000Y-96713000D02*
X136205000Y-105182500D01*
X134328000Y-77071000D02*
X134328000Y-81171000D01*
X162331821Y-72390000D02*
X165327000Y-69394821D01*
X133985000Y-96726000D02*
X133625314Y-96726000D01*
X146177000Y-68961000D02*
X156337000Y-68961000D01*
X136205000Y-91252000D02*
X136517000Y-90940000D01*
X133310000Y-91226000D02*
X133985000Y-91226000D01*
X134328000Y-82659000D02*
X134328000Y-86759000D01*
X133985000Y-96726000D02*
X135877000Y-96726000D01*
X141986000Y-73152000D02*
X146177000Y-68961000D01*
X176819000Y-94215000D02*
X177619000Y-93415000D01*
X133985000Y-91226000D02*
X135991000Y-91226000D01*
X134328000Y-77071000D02*
X134328000Y-77000000D01*
X134328000Y-81171000D02*
X134328000Y-82659000D01*
X136390000Y-94546000D02*
X136390000Y-96528000D01*
X159766000Y-72390000D02*
X162331821Y-72390000D01*
X156337000Y-68961000D02*
X159766000Y-72390000D01*
X177619000Y-93415000D02*
X178494000Y-93415000D01*
X135877000Y-96726000D02*
X135890000Y-96713000D01*
X132061000Y-95161686D02*
X132061000Y-92475000D01*
%TO.N,D1*%
X139385000Y-88039000D02*
X139385000Y-86116000D01*
X150749000Y-75311000D02*
X148589000Y-77471000D01*
X164846000Y-75311000D02*
X150749000Y-75311000D01*
X139385000Y-86116000D02*
X135928000Y-82659000D01*
X176244000Y-86709000D02*
X164846000Y-75311000D01*
X135928000Y-82659000D02*
X135928000Y-86759000D01*
X138575000Y-82659000D02*
X135928000Y-82659000D01*
X176244000Y-90365000D02*
X176244000Y-86709000D01*
X143763000Y-77471000D02*
X138575000Y-82659000D01*
X148589000Y-77471000D02*
X143763000Y-77471000D01*
%TO.N,Vcc*%
X138745000Y-90587456D02*
X139385000Y-89947456D01*
X138745000Y-88039000D02*
X138745000Y-88990544D01*
X133985000Y-92456000D02*
X137828000Y-92456000D01*
X132969000Y-92456000D02*
X132461000Y-92964000D01*
X138745000Y-88990544D02*
X139385000Y-89630544D01*
X139385000Y-89630544D02*
X139385000Y-89789000D01*
X139385000Y-89947456D02*
X139385000Y-89789000D01*
X132961000Y-95496000D02*
X133985000Y-95496000D01*
X132461000Y-94996000D02*
X132961000Y-95496000D01*
X133985000Y-92456000D02*
X132969000Y-92456000D01*
X132461000Y-92964000D02*
X132461000Y-94996000D01*
X137828000Y-92456000D02*
X138745000Y-91539000D01*
X138745000Y-91539000D02*
X138745000Y-90587456D01*
%TO.N,D2*%
X138745000Y-89789000D02*
X137408000Y-89789000D01*
X177044000Y-86493000D02*
X165227000Y-74676000D01*
X137408000Y-89789000D02*
X135128000Y-87509000D01*
X177044000Y-90365000D02*
X177044000Y-86493000D01*
X155141179Y-74676000D02*
X152400000Y-71934821D01*
X135928000Y-77071000D02*
X135928000Y-81171000D01*
X147263821Y-77071000D02*
X152400000Y-71934821D01*
X135928000Y-77071000D02*
X147263821Y-77071000D01*
X135128000Y-87509000D02*
X135128000Y-81971000D01*
X135128000Y-81971000D02*
X135928000Y-81171000D01*
X165227000Y-74676000D02*
X155141179Y-74676000D01*
%TO.N,D3*%
X152654000Y-114808000D02*
X139385000Y-101539000D01*
X164070500Y-117581000D02*
X161297500Y-114808000D01*
X139385000Y-101539000D02*
X139385000Y-91539000D01*
X161297500Y-114808000D02*
X152654000Y-114808000D01*
%TO.N,Net-(J1-SHIELD)*%
X133905000Y-89656000D02*
X130105000Y-89656000D01*
X136017000Y-90612000D02*
X134861000Y-90612000D01*
X134861000Y-90612000D02*
X133905000Y-89656000D01*
X133905000Y-98296000D02*
X130105000Y-98296000D01*
X130105000Y-89656000D02*
X130105000Y-98296000D01*
%TO.N,Net-(J1-CC1)*%
X134293000Y-94476000D02*
X133985000Y-94476000D01*
X135890000Y-96073000D02*
X134293000Y-94476000D01*
%TO.N,Net-(J1-CC2)*%
X133985000Y-93476000D02*
X135960000Y-93476000D01*
X135960000Y-93476000D02*
X136017000Y-93533000D01*
%TD*%
M02*
