%TF.GenerationSoftware,KiCad,Pcbnew,8.0.2*%
%TF.CreationDate,2024-05-25T17:49:00-05:00*%
%TF.ProjectId,kicad_timer,6b696361-645f-4746-996d-65722e6b6963,rev?*%
%TF.SameCoordinates,Original*%
%TF.FileFunction,Legend,Top*%
%TF.FilePolarity,Positive*%
%FSLAX46Y46*%
G04 Gerber Fmt 4.6, Leading zero omitted, Abs format (unit mm)*
G04 Created by KiCad (PCBNEW 8.0.2) date 2024-05-25 17:49:00*
%MOMM*%
%LPD*%
G01*
G04 APERTURE LIST*
%ADD10C,0.150000*%
%ADD11C,0.120000*%
G04 APERTURE END LIST*
D10*
X130634819Y-94786904D02*
X131444342Y-94786904D01*
X131444342Y-94786904D02*
X131539580Y-94739285D01*
X131539580Y-94739285D02*
X131587200Y-94691666D01*
X131587200Y-94691666D02*
X131634819Y-94596428D01*
X131634819Y-94596428D02*
X131634819Y-94405952D01*
X131634819Y-94405952D02*
X131587200Y-94310714D01*
X131587200Y-94310714D02*
X131539580Y-94263095D01*
X131539580Y-94263095D02*
X131444342Y-94215476D01*
X131444342Y-94215476D02*
X130634819Y-94215476D01*
X130634819Y-93834523D02*
X130634819Y-93215476D01*
X130634819Y-93215476D02*
X131015771Y-93548809D01*
X131015771Y-93548809D02*
X131015771Y-93405952D01*
X131015771Y-93405952D02*
X131063390Y-93310714D01*
X131063390Y-93310714D02*
X131111009Y-93263095D01*
X131111009Y-93263095D02*
X131206247Y-93215476D01*
X131206247Y-93215476D02*
X131444342Y-93215476D01*
X131444342Y-93215476D02*
X131539580Y-93263095D01*
X131539580Y-93263095D02*
X131587200Y-93310714D01*
X131587200Y-93310714D02*
X131634819Y-93405952D01*
X131634819Y-93405952D02*
X131634819Y-93691666D01*
X131634819Y-93691666D02*
X131587200Y-93786904D01*
X131587200Y-93786904D02*
X131539580Y-93834523D01*
X157198095Y-115487200D02*
X157340952Y-115534819D01*
X157340952Y-115534819D02*
X157579047Y-115534819D01*
X157579047Y-115534819D02*
X157674285Y-115487200D01*
X157674285Y-115487200D02*
X157721904Y-115439580D01*
X157721904Y-115439580D02*
X157769523Y-115344342D01*
X157769523Y-115344342D02*
X157769523Y-115249104D01*
X157769523Y-115249104D02*
X157721904Y-115153866D01*
X157721904Y-115153866D02*
X157674285Y-115106247D01*
X157674285Y-115106247D02*
X157579047Y-115058628D01*
X157579047Y-115058628D02*
X157388571Y-115011009D01*
X157388571Y-115011009D02*
X157293333Y-114963390D01*
X157293333Y-114963390D02*
X157245714Y-114915771D01*
X157245714Y-114915771D02*
X157198095Y-114820533D01*
X157198095Y-114820533D02*
X157198095Y-114725295D01*
X157198095Y-114725295D02*
X157245714Y-114630057D01*
X157245714Y-114630057D02*
X157293333Y-114582438D01*
X157293333Y-114582438D02*
X157388571Y-114534819D01*
X157388571Y-114534819D02*
X157626666Y-114534819D01*
X157626666Y-114534819D02*
X157769523Y-114582438D01*
X158102857Y-114534819D02*
X158721904Y-114534819D01*
X158721904Y-114534819D02*
X158388571Y-114915771D01*
X158388571Y-114915771D02*
X158531428Y-114915771D01*
X158531428Y-114915771D02*
X158626666Y-114963390D01*
X158626666Y-114963390D02*
X158674285Y-115011009D01*
X158674285Y-115011009D02*
X158721904Y-115106247D01*
X158721904Y-115106247D02*
X158721904Y-115344342D01*
X158721904Y-115344342D02*
X158674285Y-115439580D01*
X158674285Y-115439580D02*
X158626666Y-115487200D01*
X158626666Y-115487200D02*
X158531428Y-115534819D01*
X158531428Y-115534819D02*
X158245714Y-115534819D01*
X158245714Y-115534819D02*
X158150476Y-115487200D01*
X158150476Y-115487200D02*
X158102857Y-115439580D01*
X140876666Y-118234819D02*
X140543333Y-117758628D01*
X140305238Y-118234819D02*
X140305238Y-117234819D01*
X140305238Y-117234819D02*
X140686190Y-117234819D01*
X140686190Y-117234819D02*
X140781428Y-117282438D01*
X140781428Y-117282438D02*
X140829047Y-117330057D01*
X140829047Y-117330057D02*
X140876666Y-117425295D01*
X140876666Y-117425295D02*
X140876666Y-117568152D01*
X140876666Y-117568152D02*
X140829047Y-117663390D01*
X140829047Y-117663390D02*
X140781428Y-117711009D01*
X140781428Y-117711009D02*
X140686190Y-117758628D01*
X140686190Y-117758628D02*
X140305238Y-117758628D01*
X141305238Y-117711009D02*
X141638571Y-117711009D01*
X141781428Y-118234819D02*
X141305238Y-118234819D01*
X141305238Y-118234819D02*
X141305238Y-117234819D01*
X141305238Y-117234819D02*
X141781428Y-117234819D01*
X142543333Y-117711009D02*
X142210000Y-117711009D01*
X142210000Y-118234819D02*
X142210000Y-117234819D01*
X142210000Y-117234819D02*
X142686190Y-117234819D01*
X143210000Y-117234819D02*
X143210000Y-117472914D01*
X142971905Y-117377676D02*
X143210000Y-117472914D01*
X143210000Y-117472914D02*
X143448095Y-117377676D01*
X143067143Y-117663390D02*
X143210000Y-117472914D01*
X143210000Y-117472914D02*
X143352857Y-117663390D01*
X143971905Y-117234819D02*
X143971905Y-117472914D01*
X143733810Y-117377676D02*
X143971905Y-117472914D01*
X143971905Y-117472914D02*
X144210000Y-117377676D01*
X143829048Y-117663390D02*
X143971905Y-117472914D01*
X143971905Y-117472914D02*
X144114762Y-117663390D01*
X184333333Y-96504819D02*
X184000000Y-96028628D01*
X183761905Y-96504819D02*
X183761905Y-95504819D01*
X183761905Y-95504819D02*
X184142857Y-95504819D01*
X184142857Y-95504819D02*
X184238095Y-95552438D01*
X184238095Y-95552438D02*
X184285714Y-95600057D01*
X184285714Y-95600057D02*
X184333333Y-95695295D01*
X184333333Y-95695295D02*
X184333333Y-95838152D01*
X184333333Y-95838152D02*
X184285714Y-95933390D01*
X184285714Y-95933390D02*
X184238095Y-95981009D01*
X184238095Y-95981009D02*
X184142857Y-96028628D01*
X184142857Y-96028628D02*
X183761905Y-96028628D01*
X185238095Y-95504819D02*
X184761905Y-95504819D01*
X184761905Y-95504819D02*
X184714286Y-95981009D01*
X184714286Y-95981009D02*
X184761905Y-95933390D01*
X184761905Y-95933390D02*
X184857143Y-95885771D01*
X184857143Y-95885771D02*
X185095238Y-95885771D01*
X185095238Y-95885771D02*
X185190476Y-95933390D01*
X185190476Y-95933390D02*
X185238095Y-95981009D01*
X185238095Y-95981009D02*
X185285714Y-96076247D01*
X185285714Y-96076247D02*
X185285714Y-96314342D01*
X185285714Y-96314342D02*
X185238095Y-96409580D01*
X185238095Y-96409580D02*
X185190476Y-96457200D01*
X185190476Y-96457200D02*
X185095238Y-96504819D01*
X185095238Y-96504819D02*
X184857143Y-96504819D01*
X184857143Y-96504819D02*
X184761905Y-96457200D01*
X184761905Y-96457200D02*
X184714286Y-96409580D01*
X184333333Y-99504819D02*
X184000000Y-99028628D01*
X183761905Y-99504819D02*
X183761905Y-98504819D01*
X183761905Y-98504819D02*
X184142857Y-98504819D01*
X184142857Y-98504819D02*
X184238095Y-98552438D01*
X184238095Y-98552438D02*
X184285714Y-98600057D01*
X184285714Y-98600057D02*
X184333333Y-98695295D01*
X184333333Y-98695295D02*
X184333333Y-98838152D01*
X184333333Y-98838152D02*
X184285714Y-98933390D01*
X184285714Y-98933390D02*
X184238095Y-98981009D01*
X184238095Y-98981009D02*
X184142857Y-99028628D01*
X184142857Y-99028628D02*
X183761905Y-99028628D01*
X185190476Y-98504819D02*
X185000000Y-98504819D01*
X185000000Y-98504819D02*
X184904762Y-98552438D01*
X184904762Y-98552438D02*
X184857143Y-98600057D01*
X184857143Y-98600057D02*
X184761905Y-98742914D01*
X184761905Y-98742914D02*
X184714286Y-98933390D01*
X184714286Y-98933390D02*
X184714286Y-99314342D01*
X184714286Y-99314342D02*
X184761905Y-99409580D01*
X184761905Y-99409580D02*
X184809524Y-99457200D01*
X184809524Y-99457200D02*
X184904762Y-99504819D01*
X184904762Y-99504819D02*
X185095238Y-99504819D01*
X185095238Y-99504819D02*
X185190476Y-99457200D01*
X185190476Y-99457200D02*
X185238095Y-99409580D01*
X185238095Y-99409580D02*
X185285714Y-99314342D01*
X185285714Y-99314342D02*
X185285714Y-99076247D01*
X185285714Y-99076247D02*
X185238095Y-98981009D01*
X185238095Y-98981009D02*
X185190476Y-98933390D01*
X185190476Y-98933390D02*
X185095238Y-98885771D01*
X185095238Y-98885771D02*
X184904762Y-98885771D01*
X184904762Y-98885771D02*
X184809524Y-98933390D01*
X184809524Y-98933390D02*
X184761905Y-98981009D01*
X184761905Y-98981009D02*
X184714286Y-99076247D01*
X172716666Y-118384819D02*
X172383333Y-117908628D01*
X172145238Y-118384819D02*
X172145238Y-117384819D01*
X172145238Y-117384819D02*
X172526190Y-117384819D01*
X172526190Y-117384819D02*
X172621428Y-117432438D01*
X172621428Y-117432438D02*
X172669047Y-117480057D01*
X172669047Y-117480057D02*
X172716666Y-117575295D01*
X172716666Y-117575295D02*
X172716666Y-117718152D01*
X172716666Y-117718152D02*
X172669047Y-117813390D01*
X172669047Y-117813390D02*
X172621428Y-117861009D01*
X172621428Y-117861009D02*
X172526190Y-117908628D01*
X172526190Y-117908628D02*
X172145238Y-117908628D01*
X173145238Y-117861009D02*
X173478571Y-117861009D01*
X173621428Y-118384819D02*
X173145238Y-118384819D01*
X173145238Y-118384819D02*
X173145238Y-117384819D01*
X173145238Y-117384819D02*
X173621428Y-117384819D01*
X174383333Y-117861009D02*
X174050000Y-117861009D01*
X174050000Y-118384819D02*
X174050000Y-117384819D01*
X174050000Y-117384819D02*
X174526190Y-117384819D01*
X175050000Y-117384819D02*
X175050000Y-117622914D01*
X174811905Y-117527676D02*
X175050000Y-117622914D01*
X175050000Y-117622914D02*
X175288095Y-117527676D01*
X174907143Y-117813390D02*
X175050000Y-117622914D01*
X175050000Y-117622914D02*
X175192857Y-117813390D01*
X175811905Y-117384819D02*
X175811905Y-117622914D01*
X175573810Y-117527676D02*
X175811905Y-117622914D01*
X175811905Y-117622914D02*
X176050000Y-117527676D01*
X175669048Y-117813390D02*
X175811905Y-117622914D01*
X175811905Y-117622914D02*
X175954762Y-117813390D01*
X171636666Y-65424819D02*
X171303333Y-64948628D01*
X171065238Y-65424819D02*
X171065238Y-64424819D01*
X171065238Y-64424819D02*
X171446190Y-64424819D01*
X171446190Y-64424819D02*
X171541428Y-64472438D01*
X171541428Y-64472438D02*
X171589047Y-64520057D01*
X171589047Y-64520057D02*
X171636666Y-64615295D01*
X171636666Y-64615295D02*
X171636666Y-64758152D01*
X171636666Y-64758152D02*
X171589047Y-64853390D01*
X171589047Y-64853390D02*
X171541428Y-64901009D01*
X171541428Y-64901009D02*
X171446190Y-64948628D01*
X171446190Y-64948628D02*
X171065238Y-64948628D01*
X172065238Y-64901009D02*
X172398571Y-64901009D01*
X172541428Y-65424819D02*
X172065238Y-65424819D01*
X172065238Y-65424819D02*
X172065238Y-64424819D01*
X172065238Y-64424819D02*
X172541428Y-64424819D01*
X173303333Y-64901009D02*
X172970000Y-64901009D01*
X172970000Y-65424819D02*
X172970000Y-64424819D01*
X172970000Y-64424819D02*
X173446190Y-64424819D01*
X173970000Y-64424819D02*
X173970000Y-64662914D01*
X173731905Y-64567676D02*
X173970000Y-64662914D01*
X173970000Y-64662914D02*
X174208095Y-64567676D01*
X173827143Y-64853390D02*
X173970000Y-64662914D01*
X173970000Y-64662914D02*
X174112857Y-64853390D01*
X174731905Y-64424819D02*
X174731905Y-64662914D01*
X174493810Y-64567676D02*
X174731905Y-64662914D01*
X174731905Y-64662914D02*
X174970000Y-64567676D01*
X174589048Y-64853390D02*
X174731905Y-64662914D01*
X174731905Y-64662914D02*
X174874762Y-64853390D01*
X130634819Y-114491904D02*
X131444342Y-114491904D01*
X131444342Y-114491904D02*
X131539580Y-114444285D01*
X131539580Y-114444285D02*
X131587200Y-114396666D01*
X131587200Y-114396666D02*
X131634819Y-114301428D01*
X131634819Y-114301428D02*
X131634819Y-114110952D01*
X131634819Y-114110952D02*
X131587200Y-114015714D01*
X131587200Y-114015714D02*
X131539580Y-113968095D01*
X131539580Y-113968095D02*
X131444342Y-113920476D01*
X131444342Y-113920476D02*
X130634819Y-113920476D01*
X131634819Y-112920476D02*
X131634819Y-113491904D01*
X131634819Y-113206190D02*
X130634819Y-113206190D01*
X130634819Y-113206190D02*
X130777676Y-113301428D01*
X130777676Y-113301428D02*
X130872914Y-113396666D01*
X130872914Y-113396666D02*
X130920533Y-113491904D01*
X142186666Y-65424819D02*
X141853333Y-64948628D01*
X141615238Y-65424819D02*
X141615238Y-64424819D01*
X141615238Y-64424819D02*
X141996190Y-64424819D01*
X141996190Y-64424819D02*
X142091428Y-64472438D01*
X142091428Y-64472438D02*
X142139047Y-64520057D01*
X142139047Y-64520057D02*
X142186666Y-64615295D01*
X142186666Y-64615295D02*
X142186666Y-64758152D01*
X142186666Y-64758152D02*
X142139047Y-64853390D01*
X142139047Y-64853390D02*
X142091428Y-64901009D01*
X142091428Y-64901009D02*
X141996190Y-64948628D01*
X141996190Y-64948628D02*
X141615238Y-64948628D01*
X142615238Y-64901009D02*
X142948571Y-64901009D01*
X143091428Y-65424819D02*
X142615238Y-65424819D01*
X142615238Y-65424819D02*
X142615238Y-64424819D01*
X142615238Y-64424819D02*
X143091428Y-64424819D01*
X143853333Y-64901009D02*
X143520000Y-64901009D01*
X143520000Y-65424819D02*
X143520000Y-64424819D01*
X143520000Y-64424819D02*
X143996190Y-64424819D01*
X144520000Y-64424819D02*
X144520000Y-64662914D01*
X144281905Y-64567676D02*
X144520000Y-64662914D01*
X144520000Y-64662914D02*
X144758095Y-64567676D01*
X144377143Y-64853390D02*
X144520000Y-64662914D01*
X144520000Y-64662914D02*
X144662857Y-64853390D01*
X145281905Y-64424819D02*
X145281905Y-64662914D01*
X145043810Y-64567676D02*
X145281905Y-64662914D01*
X145281905Y-64662914D02*
X145520000Y-64567676D01*
X145139048Y-64853390D02*
X145281905Y-64662914D01*
X145281905Y-64662914D02*
X145424762Y-64853390D01*
X184333333Y-98004819D02*
X184000000Y-97528628D01*
X183761905Y-98004819D02*
X183761905Y-97004819D01*
X183761905Y-97004819D02*
X184142857Y-97004819D01*
X184142857Y-97004819D02*
X184238095Y-97052438D01*
X184238095Y-97052438D02*
X184285714Y-97100057D01*
X184285714Y-97100057D02*
X184333333Y-97195295D01*
X184333333Y-97195295D02*
X184333333Y-97338152D01*
X184333333Y-97338152D02*
X184285714Y-97433390D01*
X184285714Y-97433390D02*
X184238095Y-97481009D01*
X184238095Y-97481009D02*
X184142857Y-97528628D01*
X184142857Y-97528628D02*
X183761905Y-97528628D01*
X185190476Y-97338152D02*
X185190476Y-98004819D01*
X184952381Y-96957200D02*
X184714286Y-97671485D01*
X184714286Y-97671485D02*
X185333333Y-97671485D01*
X157418095Y-60949700D02*
X157560952Y-60997319D01*
X157560952Y-60997319D02*
X157799047Y-60997319D01*
X157799047Y-60997319D02*
X157894285Y-60949700D01*
X157894285Y-60949700D02*
X157941904Y-60902080D01*
X157941904Y-60902080D02*
X157989523Y-60806842D01*
X157989523Y-60806842D02*
X157989523Y-60711604D01*
X157989523Y-60711604D02*
X157941904Y-60616366D01*
X157941904Y-60616366D02*
X157894285Y-60568747D01*
X157894285Y-60568747D02*
X157799047Y-60521128D01*
X157799047Y-60521128D02*
X157608571Y-60473509D01*
X157608571Y-60473509D02*
X157513333Y-60425890D01*
X157513333Y-60425890D02*
X157465714Y-60378271D01*
X157465714Y-60378271D02*
X157418095Y-60283033D01*
X157418095Y-60283033D02*
X157418095Y-60187795D01*
X157418095Y-60187795D02*
X157465714Y-60092557D01*
X157465714Y-60092557D02*
X157513333Y-60044938D01*
X157513333Y-60044938D02*
X157608571Y-59997319D01*
X157608571Y-59997319D02*
X157846666Y-59997319D01*
X157846666Y-59997319D02*
X157989523Y-60044938D01*
X158322857Y-59997319D02*
X158941904Y-59997319D01*
X158941904Y-59997319D02*
X158608571Y-60378271D01*
X158608571Y-60378271D02*
X158751428Y-60378271D01*
X158751428Y-60378271D02*
X158846666Y-60425890D01*
X158846666Y-60425890D02*
X158894285Y-60473509D01*
X158894285Y-60473509D02*
X158941904Y-60568747D01*
X158941904Y-60568747D02*
X158941904Y-60806842D01*
X158941904Y-60806842D02*
X158894285Y-60902080D01*
X158894285Y-60902080D02*
X158846666Y-60949700D01*
X158846666Y-60949700D02*
X158751428Y-60997319D01*
X158751428Y-60997319D02*
X158465714Y-60997319D01*
X158465714Y-60997319D02*
X158370476Y-60949700D01*
X158370476Y-60949700D02*
X158322857Y-60902080D01*
X186061801Y-95722899D02*
X186776086Y-95722899D01*
X186776086Y-95722899D02*
X186918943Y-95770518D01*
X186918943Y-95770518D02*
X187014182Y-95865756D01*
X187014182Y-95865756D02*
X187061801Y-96008613D01*
X187061801Y-96008613D02*
X187061801Y-96103851D01*
X187061801Y-94722899D02*
X187061801Y-95294327D01*
X187061801Y-95008613D02*
X186061801Y-95008613D01*
X186061801Y-95008613D02*
X186204658Y-95103851D01*
X186204658Y-95103851D02*
X186299896Y-95199089D01*
X186299896Y-95199089D02*
X186347515Y-95294327D01*
D11*
%TO.C,U3*%
X132410000Y-95585000D02*
X132410000Y-76345000D01*
X132410000Y-95585000D02*
X182950000Y-95585000D01*
X150330000Y-95835000D02*
X152330000Y-95835000D01*
X182950000Y-76345000D02*
X132410000Y-76345000D01*
X182950000Y-95585000D02*
X182950000Y-76345000D01*
%TO.C,S3*%
X150860000Y-115980000D02*
X150860000Y-130180000D01*
X150860000Y-130180000D02*
X165060000Y-130180000D01*
X165060000Y-115980000D02*
X150860000Y-115980000D01*
X165060000Y-130180000D02*
X165060000Y-115980000D01*
%TO.C,U1*%
X132410000Y-115290000D02*
X132410000Y-96050000D01*
X132410000Y-115290000D02*
X182950000Y-115290000D01*
X150330000Y-115540000D02*
X152330000Y-115540000D01*
X182950000Y-96050000D02*
X132410000Y-96050000D01*
X182950000Y-115290000D02*
X182950000Y-96050000D01*
%TO.C,S3*%
X151080000Y-61442500D02*
X151080000Y-75642500D01*
X151080000Y-75642500D02*
X165280000Y-75642500D01*
X165280000Y-61442500D02*
X151080000Y-61442500D01*
X165280000Y-75642500D02*
X165280000Y-61442500D01*
%TO.C,J1*%
X191456982Y-90719566D02*
X189756982Y-90719566D01*
X191456982Y-100059566D02*
X189756982Y-100059566D01*
%TD*%
M02*
