%TF.GenerationSoftware,KiCad,Pcbnew,8.0.3*%
%TF.CreationDate,2024-07-23T23:43:33-05:00*%
%TF.ProjectId,kicad_timer,6b696361-645f-4746-996d-65722e6b6963,rev?*%
%TF.SameCoordinates,Original*%
%TF.FileFunction,Legend,Top*%
%TF.FilePolarity,Positive*%
%FSLAX46Y46*%
G04 Gerber Fmt 4.6, Leading zero omitted, Abs format (unit mm)*
G04 Created by KiCad (PCBNEW 8.0.3) date 2024-07-23 23:43:33*
%MOMM*%
%LPD*%
G01*
G04 APERTURE LIST*
%ADD10C,0.150000*%
%ADD11C,0.120000*%
G04 APERTURE END LIST*
D10*
X184196819Y-97164904D02*
X185006342Y-97164904D01*
X185006342Y-97164904D02*
X185101580Y-97117285D01*
X185101580Y-97117285D02*
X185149200Y-97069666D01*
X185149200Y-97069666D02*
X185196819Y-96974428D01*
X185196819Y-96974428D02*
X185196819Y-96783952D01*
X185196819Y-96783952D02*
X185149200Y-96688714D01*
X185149200Y-96688714D02*
X185101580Y-96641095D01*
X185101580Y-96641095D02*
X185006342Y-96593476D01*
X185006342Y-96593476D02*
X184196819Y-96593476D01*
X184196819Y-96212523D02*
X184196819Y-95593476D01*
X184196819Y-95593476D02*
X184577771Y-95926809D01*
X184577771Y-95926809D02*
X184577771Y-95783952D01*
X184577771Y-95783952D02*
X184625390Y-95688714D01*
X184625390Y-95688714D02*
X184673009Y-95641095D01*
X184673009Y-95641095D02*
X184768247Y-95593476D01*
X184768247Y-95593476D02*
X185006342Y-95593476D01*
X185006342Y-95593476D02*
X185101580Y-95641095D01*
X185101580Y-95641095D02*
X185149200Y-95688714D01*
X185149200Y-95688714D02*
X185196819Y-95783952D01*
X185196819Y-95783952D02*
X185196819Y-96069666D01*
X185196819Y-96069666D02*
X185149200Y-96164904D01*
X185149200Y-96164904D02*
X185101580Y-96212523D01*
X131196819Y-93784904D02*
X132006342Y-93784904D01*
X132006342Y-93784904D02*
X132101580Y-93737285D01*
X132101580Y-93737285D02*
X132149200Y-93689666D01*
X132149200Y-93689666D02*
X132196819Y-93594428D01*
X132196819Y-93594428D02*
X132196819Y-93403952D01*
X132196819Y-93403952D02*
X132149200Y-93308714D01*
X132149200Y-93308714D02*
X132101580Y-93261095D01*
X132101580Y-93261095D02*
X132006342Y-93213476D01*
X132006342Y-93213476D02*
X131196819Y-93213476D01*
X132196819Y-92213476D02*
X132196819Y-92784904D01*
X132196819Y-92499190D02*
X131196819Y-92499190D01*
X131196819Y-92499190D02*
X131339676Y-92594428D01*
X131339676Y-92594428D02*
X131434914Y-92689666D01*
X131434914Y-92689666D02*
X131482533Y-92784904D01*
D11*
%TO.C,U3*%
X132972000Y-94843000D02*
X132972000Y-114083000D01*
X132972000Y-114083000D02*
X183512000Y-114083000D01*
X165592000Y-94593000D02*
X163592000Y-94593000D01*
X183512000Y-94843000D02*
X132972000Y-94843000D01*
X183512000Y-94843000D02*
X183512000Y-114083000D01*
%TO.C,U1*%
X132972000Y-94583000D02*
X132972000Y-75343000D01*
X132972000Y-94583000D02*
X183512000Y-94583000D01*
X150892000Y-94833000D02*
X152892000Y-94833000D01*
X183512000Y-75343000D02*
X132972000Y-75343000D01*
X183512000Y-94583000D02*
X183512000Y-75343000D01*
%TD*%
M02*
