%TF.GenerationSoftware,KiCad,Pcbnew,8.0.2*%
%TF.CreationDate,2024-05-25T17:49:00-05:00*%
%TF.ProjectId,kicad_timer,6b696361-645f-4746-996d-65722e6b6963,rev?*%
%TF.SameCoordinates,Original*%
%TF.FileFunction,Copper,L1,Top*%
%TF.FilePolarity,Positive*%
%FSLAX46Y46*%
G04 Gerber Fmt 4.6, Leading zero omitted, Abs format (unit mm)*
G04 Created by KiCad (PCBNEW 8.0.2) date 2024-05-25 17:49:00*
%MOMM*%
%LPD*%
G01*
G04 APERTURE LIST*
G04 Aperture macros list*
%AMRoundRect*
0 Rectangle with rounded corners*
0 $1 Rounding radius*
0 $2 $3 $4 $5 $6 $7 $8 $9 X,Y pos of 4 corners*
0 Add a 4 corners polygon primitive as box body*
4,1,4,$2,$3,$4,$5,$6,$7,$8,$9,$2,$3,0*
0 Add four circle primitives for the rounded corners*
1,1,$1+$1,$2,$3*
1,1,$1+$1,$4,$5*
1,1,$1+$1,$6,$7*
1,1,$1+$1,$8,$9*
0 Add four rect primitives between the rounded corners*
20,1,$1+$1,$2,$3,$4,$5,0*
20,1,$1+$1,$4,$5,$6,$7,0*
20,1,$1+$1,$6,$7,$8,$9,0*
20,1,$1+$1,$8,$9,$2,$3,0*%
G04 Aperture macros list end*
%TA.AperFunction,ComponentPad*%
%ADD10R,1.500000X1.500000*%
%TD*%
%TA.AperFunction,ComponentPad*%
%ADD11C,1.500000*%
%TD*%
%TA.AperFunction,SMDPad,CuDef*%
%ADD12RoundRect,0.100000X0.130000X0.100000X-0.130000X0.100000X-0.130000X-0.100000X0.130000X-0.100000X0*%
%TD*%
%TA.AperFunction,SMDPad,CuDef*%
%ADD13RoundRect,0.175000X0.425000X-0.175000X0.425000X0.175000X-0.425000X0.175000X-0.425000X-0.175000X0*%
%TD*%
%TA.AperFunction,SMDPad,CuDef*%
%ADD14RoundRect,0.190000X-0.410000X0.190000X-0.410000X-0.190000X0.410000X-0.190000X0.410000X0.190000X0*%
%TD*%
%TA.AperFunction,SMDPad,CuDef*%
%ADD15RoundRect,0.200000X-0.400000X0.200000X-0.400000X-0.200000X0.400000X-0.200000X0.400000X0.200000X0*%
%TD*%
%TA.AperFunction,SMDPad,CuDef*%
%ADD16RoundRect,0.175000X-0.425000X0.175000X-0.425000X-0.175000X0.425000X-0.175000X0.425000X0.175000X0*%
%TD*%
%TA.AperFunction,SMDPad,CuDef*%
%ADD17RoundRect,0.190000X0.410000X-0.190000X0.410000X0.190000X-0.410000X0.190000X-0.410000X-0.190000X0*%
%TD*%
%TA.AperFunction,SMDPad,CuDef*%
%ADD18RoundRect,0.200000X0.400000X-0.200000X0.400000X0.200000X-0.400000X0.200000X-0.400000X-0.200000X0*%
%TD*%
%TA.AperFunction,ComponentPad*%
%ADD19O,1.700000X1.100000*%
%TD*%
%TA.AperFunction,ViaPad*%
%ADD20C,0.600000*%
%TD*%
%TA.AperFunction,Conductor*%
%ADD21C,0.200000*%
%TD*%
G04 APERTURE END LIST*
D10*
%TO.P,U3,1,e*%
%TO.N,Net-(U2-PB4)*%
X151330000Y-93585000D03*
D11*
%TO.P,U3,2,d*%
%TO.N,Net-(U2-PB3)*%
X153870000Y-93585000D03*
%TO.P,U3,3,DPX*%
%TO.N,unconnected-(U3-DPX-Pad3)*%
X156410000Y-93585000D03*
%TO.P,U3,4,c*%
%TO.N,Net-(U2-PB2)*%
X158950000Y-93585000D03*
%TO.P,U3,5,g*%
%TO.N,Net-(U2-XTAL1{slash}PB6)*%
X161490000Y-93585000D03*
%TO.P,U3,6,CA4*%
%TO.N,DIG4*%
X164030000Y-93585000D03*
%TO.P,U3,7,b*%
%TO.N,Net-(U2-PB1)*%
X164030000Y-78345000D03*
%TO.P,U3,8,CA3*%
%TO.N,DIG3*%
X161490000Y-78345000D03*
%TO.P,U3,9,CA2*%
%TO.N,DIG2*%
X158950000Y-78345000D03*
%TO.P,U3,10,f*%
%TO.N,Net-(U2-PB5)*%
X156410000Y-78345000D03*
%TO.P,U3,11,a*%
%TO.N,Net-(U2-PB0)*%
X153870000Y-78345000D03*
%TO.P,U3,12,CA1*%
%TO.N,DIG1*%
X151330000Y-78345000D03*
%TD*%
D12*
%TO.P,R5,1*%
%TO.N,Net-(J1-CC2)*%
X184820000Y-95000000D03*
%TO.P,R5,2*%
%TO.N,GND*%
X184180000Y-95000000D03*
%TD*%
%TO.P,R6,1*%
%TO.N,Net-(J1-SHIELD)*%
X184820000Y-98000000D03*
%TO.P,R6,2*%
%TO.N,GND*%
X184180000Y-98000000D03*
%TD*%
D10*
%TO.P,U1,1,e*%
%TO.N,Net-(U1-e)*%
X151330000Y-113290000D03*
D11*
%TO.P,U1,2,d*%
%TO.N,Net-(U1-d)*%
X153870000Y-113290000D03*
%TO.P,U1,3,DPX*%
%TO.N,unconnected-(U1-DPX-Pad3)*%
X156410000Y-113290000D03*
%TO.P,U1,4,c*%
%TO.N,Net-(U1-c)*%
X158950000Y-113290000D03*
%TO.P,U1,5,g*%
%TO.N,Net-(U1-g)*%
X161490000Y-113290000D03*
%TO.P,U1,6,CA4*%
%TO.N,DIG4*%
X164030000Y-113290000D03*
%TO.P,U1,7,b*%
%TO.N,Net-(U1-b)*%
X164030000Y-98050000D03*
%TO.P,U1,8,CA3*%
%TO.N,DIG3*%
X161490000Y-98050000D03*
%TO.P,U1,9,CA2*%
%TO.N,DIG2*%
X158950000Y-98050000D03*
%TO.P,U1,10,f*%
%TO.N,Net-(U1-f)*%
X156410000Y-98050000D03*
%TO.P,U1,11,a*%
%TO.N,Net-(U1-a)*%
X153870000Y-98050000D03*
%TO.P,U1,12,CA1*%
%TO.N,DIG1*%
X151330000Y-98050000D03*
%TD*%
D12*
%TO.P,R4,1*%
%TO.N,Net-(J1-CC1)*%
X184820000Y-96500000D03*
%TO.P,R4,2*%
%TO.N,GND*%
X184180000Y-96500000D03*
%TD*%
D13*
%TO.P,J1,A5,CC1*%
%TO.N,Net-(J1-CC1)*%
X188626982Y-95889566D03*
D14*
%TO.P,J1,A9,VBUS*%
%TO.N,Vcc*%
X188626982Y-93869566D03*
D15*
%TO.P,J1,A12,GND*%
%TO.N,GND*%
X188626982Y-92639566D03*
D16*
%TO.P,J1,B5,CC2*%
%TO.N,Net-(J1-CC2)*%
X188626982Y-94889566D03*
D17*
%TO.P,J1,B9,VBUS*%
%TO.N,Vcc*%
X188626982Y-96909566D03*
D18*
%TO.P,J1,B12,GND*%
%TO.N,GND*%
X188626982Y-98139566D03*
D19*
%TO.P,J1,S1,SHIELD*%
%TO.N,Net-(J1-SHIELD)*%
X188706982Y-99709566D03*
X192506982Y-99709566D03*
X188706982Y-91069566D03*
X192506982Y-91069566D03*
%TD*%
D20*
%TO.N,GND*%
X177305000Y-106192500D03*
%TO.N,D1*%
X130180000Y-90542500D03*
X133180000Y-87542500D03*
X130678528Y-97141398D03*
X138500000Y-106500000D03*
%TO.N,Vcc*%
X147090000Y-86280000D03*
X144070000Y-85260000D03*
X182090000Y-93820000D03*
%TO.N,D2*%
X133180000Y-90542500D03*
X128180000Y-97042500D03*
%TO.N,D3*%
X134680000Y-106542500D03*
X134480000Y-108192500D03*
X163260000Y-115170000D03*
X134680000Y-99542500D03*
%TO.N,Net-(U1-c)*%
X144180000Y-111442500D03*
%TO.N,DIG4*%
X155680000Y-103542500D03*
X147658053Y-103642500D03*
X142680000Y-103642500D03*
%TO.N,Net-(U1-d)*%
X143667851Y-112057079D03*
%TO.N,Net-(U1-a)*%
X146680000Y-106542500D03*
%TO.N,Net-(U1-f)*%
X141180000Y-111042500D03*
%TO.N,DIG2*%
X139180000Y-103042500D03*
%TO.N,DIG1*%
X138680000Y-105042500D03*
%TO.N,Net-(U1-b)*%
X147923015Y-107385515D03*
%TO.N,DIG3*%
X154223015Y-101085515D03*
%TO.N,Net-(U1-g)*%
X140680000Y-112542500D03*
%TO.N,Net-(U1-e)*%
X142180000Y-112042500D03*
%TO.N,Net-(U2-PB1)*%
X140729265Y-98091765D03*
%TO.N,Net-(U2-PB2)*%
X145180000Y-97042500D03*
X154683015Y-95545515D03*
X142180000Y-98542500D03*
%TO.N,Net-(U2-PB5)*%
X156180000Y-91042500D03*
%TO.N,Net-(U2-PB4)*%
X144680000Y-100542500D03*
%TO.N,Net-(U2-PB0)*%
X143180000Y-96542500D03*
X141180000Y-101592502D03*
X155780000Y-89542500D03*
%TO.N,Net-(U2-PB3)*%
X142680000Y-101842500D03*
%TO.N,Net-(U2-XTAL1{slash}PB6)*%
X161180000Y-88542500D03*
%TD*%
D21*
%TO.N,GND*%
X187387416Y-97500000D02*
X188026982Y-98139566D01*
X184180000Y-98000000D02*
X184180000Y-99317500D01*
X184180000Y-98000000D02*
X184180000Y-97800001D01*
X184180000Y-96500000D02*
X184180000Y-98000000D01*
X189226982Y-98139566D02*
X190500000Y-96866548D01*
X188626982Y-98139566D02*
X189226982Y-98139566D01*
X190500000Y-96866548D02*
X190500000Y-93912584D01*
X189226982Y-92639566D02*
X188626982Y-92639566D01*
X184180000Y-95000000D02*
X184180000Y-96500000D01*
X184480001Y-97500000D02*
X187387416Y-97500000D01*
X190500000Y-93912584D02*
X189226982Y-92639566D01*
X184180000Y-97800001D02*
X184480001Y-97500000D01*
X184180000Y-99317500D02*
X177305000Y-106192500D01*
X188026982Y-98139566D02*
X188626982Y-98139566D01*
%TO.N,D1*%
X133180000Y-87542500D02*
X130180000Y-90542500D01*
X131319926Y-96500000D02*
X130678528Y-97141398D01*
X135500000Y-96500000D02*
X131319926Y-96500000D01*
X135500000Y-103500000D02*
X135500000Y-96500000D01*
X138500000Y-106500000D02*
X135500000Y-103500000D01*
%TO.N,Vcc*%
X190100000Y-96036548D02*
X189226982Y-96909566D01*
X144070000Y-85260000D02*
X145090000Y-86280000D01*
X190100000Y-94742584D02*
X190100000Y-96036548D01*
X182139566Y-93869566D02*
X188626982Y-93869566D01*
X189226982Y-96909566D02*
X188626982Y-96909566D01*
X188626982Y-93869566D02*
X189226982Y-93869566D01*
X145090000Y-86280000D02*
X147090000Y-86280000D01*
X182090000Y-93820000D02*
X182139566Y-93869566D01*
X189226982Y-93869566D02*
X190100000Y-94742584D01*
%TO.N,D2*%
X128180000Y-97042500D02*
X128180000Y-95542500D01*
X128180000Y-95542500D02*
X133180000Y-90542500D01*
%TO.N,D3*%
X134480000Y-108192500D02*
X141457500Y-115170000D01*
X134680000Y-99542500D02*
X134680000Y-106542500D01*
X141457500Y-115170000D02*
X163260000Y-115170000D01*
%TO.N,Net-(U1-c)*%
X158950000Y-113290000D02*
X157102500Y-111442500D01*
X157102500Y-111442500D02*
X144180000Y-111442500D01*
%TO.N,DIG4*%
X166680000Y-110640000D02*
X166680000Y-98042500D01*
X142680000Y-103642500D02*
X147658053Y-103642500D01*
X155680000Y-103542500D02*
X161180000Y-103542500D01*
X161180000Y-103542500D02*
X166680000Y-98042500D01*
X166680000Y-98042500D02*
X166680000Y-96235000D01*
X164030000Y-113290000D02*
X166680000Y-110640000D01*
X166680000Y-96235000D02*
X164030000Y-93585000D01*
%TO.N,Net-(U1-d)*%
X152622500Y-112042500D02*
X153870000Y-113290000D01*
X143667851Y-112057079D02*
X143682430Y-112042500D01*
X143682430Y-112042500D02*
X152622500Y-112042500D01*
%TO.N,Net-(U1-a)*%
X152820000Y-99100000D02*
X152820000Y-100402500D01*
X152820000Y-100402500D02*
X146680000Y-106542500D01*
X153870000Y-98050000D02*
X152820000Y-99100000D01*
%TO.N,Net-(U1-f)*%
X156410000Y-98050000D02*
X143417500Y-111042500D01*
X143417500Y-111042500D02*
X141180000Y-111042500D01*
%TO.N,DIG2*%
X152380000Y-97615075D02*
X152380000Y-98484925D01*
X160000000Y-79395000D02*
X160000000Y-97000000D01*
X160000000Y-97000000D02*
X158950000Y-98050000D01*
X152380000Y-98484925D02*
X147822425Y-103042500D01*
X147822425Y-103042500D02*
X139180000Y-103042500D01*
X152995075Y-97000000D02*
X152380000Y-97615075D01*
X158950000Y-98050000D02*
X157900000Y-97000000D01*
X157900000Y-97000000D02*
X152995075Y-97000000D01*
X158950000Y-78345000D02*
X160000000Y-79395000D01*
%TO.N,DIG1*%
X138931471Y-102442500D02*
X138580000Y-102793971D01*
X151330000Y-78345000D02*
X155180000Y-82195000D01*
X155180000Y-94200000D02*
X151330000Y-98050000D01*
X138580000Y-104942500D02*
X138680000Y-105042500D01*
X138580000Y-102793971D02*
X138580000Y-104942500D01*
X155180000Y-82195000D02*
X155180000Y-94200000D01*
X151330000Y-98050000D02*
X146937500Y-102442500D01*
X146937500Y-102442500D02*
X138931471Y-102442500D01*
%TO.N,Net-(U1-b)*%
X163172500Y-98050000D02*
X164030000Y-98050000D01*
X147923015Y-107385515D02*
X148236985Y-107385515D01*
X153580000Y-102042500D02*
X159180000Y-102042500D01*
X159180000Y-102042500D02*
X163172500Y-98050000D01*
X148236985Y-107385515D02*
X153580000Y-102042500D01*
%TO.N,DIG3*%
X162540000Y-79395000D02*
X161490000Y-78345000D01*
X162540000Y-97000000D02*
X162540000Y-79395000D01*
X161490000Y-98050000D02*
X158454485Y-101085515D01*
X161490000Y-98050000D02*
X162540000Y-97000000D01*
X158454485Y-101085515D02*
X154223015Y-101085515D01*
%TO.N,Net-(U1-g)*%
X160440000Y-114340000D02*
X142477500Y-114340000D01*
X161490000Y-113290000D02*
X160440000Y-114340000D01*
X142477500Y-114340000D02*
X140680000Y-112542500D01*
%TO.N,Net-(U1-e)*%
X142180000Y-112042500D02*
X143427500Y-113290000D01*
X143427500Y-113290000D02*
X151330000Y-113290000D01*
%TO.N,Net-(U2-PB1)*%
X162980000Y-77295000D02*
X164030000Y-78345000D01*
X142180000Y-86010075D02*
X150895075Y-77295000D01*
X142180000Y-96641030D02*
X142180000Y-86010075D01*
X150895075Y-77295000D02*
X162980000Y-77295000D01*
X140729265Y-98091765D02*
X142180000Y-96641030D01*
%TO.N,Net-(U2-PB2)*%
X154683015Y-95545515D02*
X156989485Y-95545515D01*
X145180000Y-97042500D02*
X143680000Y-97042500D01*
X143680000Y-97042500D02*
X142180000Y-98542500D01*
X156989485Y-95545515D02*
X158950000Y-93585000D01*
%TO.N,Net-(U2-PB5)*%
X156410000Y-78345000D02*
X156410000Y-90812500D01*
X156410000Y-90812500D02*
X156180000Y-91042500D01*
%TO.N,Net-(U2-PB4)*%
X151330000Y-93892500D02*
X144680000Y-100542500D01*
X151330000Y-93585000D02*
X151330000Y-93892500D01*
%TO.N,Net-(U2-PB0)*%
X143180000Y-96542500D02*
X141180000Y-98542500D01*
X141180000Y-98542500D02*
X141180000Y-101592502D01*
X155780000Y-80255000D02*
X155780000Y-89542500D01*
X153870000Y-78345000D02*
X155780000Y-80255000D01*
%TO.N,Net-(U2-PB3)*%
X153870000Y-93585000D02*
X145612500Y-101842500D01*
X145612500Y-101842500D02*
X142680000Y-101842500D01*
%TO.N,Net-(U2-XTAL1{slash}PB6)*%
X161490000Y-93585000D02*
X161490000Y-88852500D01*
X161490000Y-88852500D02*
X161180000Y-88542500D01*
%TO.N,Net-(J1-SHIELD)*%
X184820000Y-98000000D02*
X184975000Y-98000000D01*
X192506982Y-91069566D02*
X188706982Y-91069566D01*
X191050000Y-97029196D02*
X191050000Y-93412584D01*
X189239630Y-98839566D02*
X191050000Y-97029196D01*
X185659566Y-98839566D02*
X189239630Y-98839566D01*
X191050000Y-93412584D02*
X188706982Y-91069566D01*
X184820000Y-98000000D02*
X186529566Y-99709566D01*
X184820000Y-98000000D02*
X185659566Y-98839566D01*
X188706982Y-99709566D02*
X192506982Y-99709566D01*
X186529566Y-99709566D02*
X188706982Y-99709566D01*
%TO.N,Net-(J1-CC1)*%
X184820000Y-96500000D02*
X185430434Y-95889566D01*
X185430434Y-95889566D02*
X188626982Y-95889566D01*
%TO.N,Net-(J1-CC2)*%
X188516548Y-95000000D02*
X188626982Y-94889566D01*
X184820000Y-95000000D02*
X188516548Y-95000000D01*
%TD*%
M02*
