%TF.GenerationSoftware,KiCad,Pcbnew,8.0.2*%
%TF.CreationDate,2024-05-25T17:49:00-05:00*%
%TF.ProjectId,kicad_timer,6b696361-645f-4746-996d-65722e6b6963,rev?*%
%TF.SameCoordinates,Original*%
%TF.FileFunction,Legend,Bot*%
%TF.FilePolarity,Positive*%
%FSLAX46Y46*%
G04 Gerber Fmt 4.6, Leading zero omitted, Abs format (unit mm)*
G04 Created by KiCad (PCBNEW 8.0.2) date 2024-05-25 17:49:00*
%MOMM*%
%LPD*%
G01*
G04 APERTURE LIST*
%ADD10C,0.150000*%
%ADD11C,0.120000*%
G04 APERTURE END LIST*
D10*
X137986666Y-89004819D02*
X138319999Y-88528628D01*
X138558094Y-89004819D02*
X138558094Y-88004819D01*
X138558094Y-88004819D02*
X138177142Y-88004819D01*
X138177142Y-88004819D02*
X138081904Y-88052438D01*
X138081904Y-88052438D02*
X138034285Y-88100057D01*
X138034285Y-88100057D02*
X137986666Y-88195295D01*
X137986666Y-88195295D02*
X137986666Y-88338152D01*
X137986666Y-88338152D02*
X138034285Y-88433390D01*
X138034285Y-88433390D02*
X138081904Y-88481009D01*
X138081904Y-88481009D02*
X138177142Y-88528628D01*
X138177142Y-88528628D02*
X138558094Y-88528628D01*
X137034285Y-89004819D02*
X137605713Y-89004819D01*
X137319999Y-89004819D02*
X137319999Y-88004819D01*
X137319999Y-88004819D02*
X137415237Y-88147676D01*
X137415237Y-88147676D02*
X137510475Y-88242914D01*
X137510475Y-88242914D02*
X137605713Y-88290533D01*
X133537200Y-99280595D02*
X133584819Y-99423452D01*
X133584819Y-99423452D02*
X133584819Y-99661547D01*
X133584819Y-99661547D02*
X133537200Y-99756785D01*
X133537200Y-99756785D02*
X133489580Y-99804404D01*
X133489580Y-99804404D02*
X133394342Y-99852023D01*
X133394342Y-99852023D02*
X133299104Y-99852023D01*
X133299104Y-99852023D02*
X133203866Y-99804404D01*
X133203866Y-99804404D02*
X133156247Y-99756785D01*
X133156247Y-99756785D02*
X133108628Y-99661547D01*
X133108628Y-99661547D02*
X133061009Y-99471071D01*
X133061009Y-99471071D02*
X133013390Y-99375833D01*
X133013390Y-99375833D02*
X132965771Y-99328214D01*
X132965771Y-99328214D02*
X132870533Y-99280595D01*
X132870533Y-99280595D02*
X132775295Y-99280595D01*
X132775295Y-99280595D02*
X132680057Y-99328214D01*
X132680057Y-99328214D02*
X132632438Y-99375833D01*
X132632438Y-99375833D02*
X132584819Y-99471071D01*
X132584819Y-99471071D02*
X132584819Y-99709166D01*
X132584819Y-99709166D02*
X132632438Y-99852023D01*
X132918152Y-100709166D02*
X133584819Y-100709166D01*
X132537200Y-100471071D02*
X133251485Y-100232976D01*
X133251485Y-100232976D02*
X133251485Y-100852023D01*
X141441904Y-110047319D02*
X141441904Y-110856842D01*
X141441904Y-110856842D02*
X141394285Y-110952080D01*
X141394285Y-110952080D02*
X141346666Y-110999700D01*
X141346666Y-110999700D02*
X141251428Y-111047319D01*
X141251428Y-111047319D02*
X141060952Y-111047319D01*
X141060952Y-111047319D02*
X140965714Y-110999700D01*
X140965714Y-110999700D02*
X140918095Y-110952080D01*
X140918095Y-110952080D02*
X140870476Y-110856842D01*
X140870476Y-110856842D02*
X140870476Y-110047319D01*
X140441904Y-110142557D02*
X140394285Y-110094938D01*
X140394285Y-110094938D02*
X140299047Y-110047319D01*
X140299047Y-110047319D02*
X140060952Y-110047319D01*
X140060952Y-110047319D02*
X139965714Y-110094938D01*
X139965714Y-110094938D02*
X139918095Y-110142557D01*
X139918095Y-110142557D02*
X139870476Y-110237795D01*
X139870476Y-110237795D02*
X139870476Y-110333033D01*
X139870476Y-110333033D02*
X139918095Y-110475890D01*
X139918095Y-110475890D02*
X140489523Y-111047319D01*
X140489523Y-111047319D02*
X139870476Y-111047319D01*
X144546666Y-88954819D02*
X144879999Y-88478628D01*
X145118094Y-88954819D02*
X145118094Y-87954819D01*
X145118094Y-87954819D02*
X144737142Y-87954819D01*
X144737142Y-87954819D02*
X144641904Y-88002438D01*
X144641904Y-88002438D02*
X144594285Y-88050057D01*
X144594285Y-88050057D02*
X144546666Y-88145295D01*
X144546666Y-88145295D02*
X144546666Y-88288152D01*
X144546666Y-88288152D02*
X144594285Y-88383390D01*
X144594285Y-88383390D02*
X144641904Y-88431009D01*
X144641904Y-88431009D02*
X144737142Y-88478628D01*
X144737142Y-88478628D02*
X145118094Y-88478628D01*
X144213332Y-87954819D02*
X143594285Y-87954819D01*
X143594285Y-87954819D02*
X143927618Y-88335771D01*
X143927618Y-88335771D02*
X143784761Y-88335771D01*
X143784761Y-88335771D02*
X143689523Y-88383390D01*
X143689523Y-88383390D02*
X143641904Y-88431009D01*
X143641904Y-88431009D02*
X143594285Y-88526247D01*
X143594285Y-88526247D02*
X143594285Y-88764342D01*
X143594285Y-88764342D02*
X143641904Y-88859580D01*
X143641904Y-88859580D02*
X143689523Y-88907200D01*
X143689523Y-88907200D02*
X143784761Y-88954819D01*
X143784761Y-88954819D02*
X144070475Y-88954819D01*
X144070475Y-88954819D02*
X144165713Y-88907200D01*
X144165713Y-88907200D02*
X144213332Y-88859580D01*
X133357200Y-93238095D02*
X133404819Y-93380952D01*
X133404819Y-93380952D02*
X133404819Y-93619047D01*
X133404819Y-93619047D02*
X133357200Y-93714285D01*
X133357200Y-93714285D02*
X133309580Y-93761904D01*
X133309580Y-93761904D02*
X133214342Y-93809523D01*
X133214342Y-93809523D02*
X133119104Y-93809523D01*
X133119104Y-93809523D02*
X133023866Y-93761904D01*
X133023866Y-93761904D02*
X132976247Y-93714285D01*
X132976247Y-93714285D02*
X132928628Y-93619047D01*
X132928628Y-93619047D02*
X132881009Y-93428571D01*
X132881009Y-93428571D02*
X132833390Y-93333333D01*
X132833390Y-93333333D02*
X132785771Y-93285714D01*
X132785771Y-93285714D02*
X132690533Y-93238095D01*
X132690533Y-93238095D02*
X132595295Y-93238095D01*
X132595295Y-93238095D02*
X132500057Y-93285714D01*
X132500057Y-93285714D02*
X132452438Y-93333333D01*
X132452438Y-93333333D02*
X132404819Y-93428571D01*
X132404819Y-93428571D02*
X132404819Y-93666666D01*
X132404819Y-93666666D02*
X132452438Y-93809523D01*
X133404819Y-94761904D02*
X133404819Y-94190476D01*
X133404819Y-94476190D02*
X132404819Y-94476190D01*
X132404819Y-94476190D02*
X132547676Y-94380952D01*
X132547676Y-94380952D02*
X132642914Y-94285714D01*
X132642914Y-94285714D02*
X132690533Y-94190476D01*
X140486666Y-89004819D02*
X140819999Y-88528628D01*
X141058094Y-89004819D02*
X141058094Y-88004819D01*
X141058094Y-88004819D02*
X140677142Y-88004819D01*
X140677142Y-88004819D02*
X140581904Y-88052438D01*
X140581904Y-88052438D02*
X140534285Y-88100057D01*
X140534285Y-88100057D02*
X140486666Y-88195295D01*
X140486666Y-88195295D02*
X140486666Y-88338152D01*
X140486666Y-88338152D02*
X140534285Y-88433390D01*
X140534285Y-88433390D02*
X140581904Y-88481009D01*
X140581904Y-88481009D02*
X140677142Y-88528628D01*
X140677142Y-88528628D02*
X141058094Y-88528628D01*
X140105713Y-88100057D02*
X140058094Y-88052438D01*
X140058094Y-88052438D02*
X139962856Y-88004819D01*
X139962856Y-88004819D02*
X139724761Y-88004819D01*
X139724761Y-88004819D02*
X139629523Y-88052438D01*
X139629523Y-88052438D02*
X139581904Y-88100057D01*
X139581904Y-88100057D02*
X139534285Y-88195295D01*
X139534285Y-88195295D02*
X139534285Y-88290533D01*
X139534285Y-88290533D02*
X139581904Y-88433390D01*
X139581904Y-88433390D02*
X140153332Y-89004819D01*
X140153332Y-89004819D02*
X139534285Y-89004819D01*
D11*
%TO.C,S3*%
X153860000Y-116180000D02*
X158960000Y-116180000D01*
X157760000Y-120380000D02*
X162860000Y-120380000D01*
X151860000Y-118180000D02*
G75*
G02*
X153860000Y-116180000I1999999J1D01*
G01*
X155760000Y-122380000D02*
G75*
G02*
X157760000Y-120380000I1999999J1D01*
G01*
X154080000Y-61642500D02*
X159180000Y-61642500D01*
X157980000Y-65842500D02*
X163080000Y-65842500D01*
X152080000Y-63642500D02*
G75*
G02*
X154080000Y-61642500I1999999J1D01*
G01*
X155980000Y-67842500D02*
G75*
G02*
X157980000Y-65842500I1999999J1D01*
G01*
%TO.C,S4*%
X129130000Y-97842500D02*
X129130000Y-102242500D01*
X130730000Y-97842500D02*
X130630000Y-97842500D01*
X130730000Y-102242500D02*
X130630000Y-102242500D01*
X132230000Y-98892500D02*
X132230000Y-97842500D01*
X132230000Y-102242500D02*
X132230000Y-101192500D01*
D10*
%TO.C,U2*%
X137055000Y-101242500D02*
X137055000Y-100917500D01*
X137055000Y-107942500D02*
X137055000Y-108167500D01*
X137380000Y-100917500D02*
X137055000Y-100917500D01*
X137380000Y-108167500D02*
X137055000Y-108167500D01*
X143980000Y-100917500D02*
X144305000Y-100917500D01*
X143980000Y-108167500D02*
X144305000Y-108167500D01*
X144305000Y-101242500D02*
X144305000Y-100917500D01*
X144305000Y-107842500D02*
X144305000Y-108167500D01*
D11*
X136630000Y-108352500D02*
X135950000Y-108352500D01*
X136290000Y-107882500D01*
X136630000Y-108352500D01*
G36*
X136630000Y-108352500D02*
G01*
X135950000Y-108352500D01*
X136290000Y-107882500D01*
X136630000Y-108352500D01*
G37*
%TO.C,S1*%
X128950000Y-91800000D02*
X128950000Y-96200000D01*
X130550000Y-91800000D02*
X130450000Y-91800000D01*
X130550000Y-96200000D02*
X130450000Y-96200000D01*
X132050000Y-92850000D02*
X132050000Y-91800000D01*
X132050000Y-96200000D02*
X132050000Y-95150000D01*
%TD*%
M02*
