M48
; DRILL file {KiCad 8.0.3} date 2024-07-23T23:43:31-0500
; FORMAT={-:-/ absolute / inch / decimal}
; #@! TF.CreationDate,2024-07-23T23:43:31-05:00
; #@! TF.GenerationSoftware,Kicad,Pcbnew,8.0.3
; #@! TF.FileFunction,Plated,1,2,PTH
FMAT,2
INCH
; #@! TA.AperFunction,Plated,PTH,ViaDrill
T1C0.0118
; #@! TA.AperFunction,Plated,PTH,ComponentDrill
T2C0.0236
; #@! TA.AperFunction,Plated,PTH,ComponentDrill
T3C0.0394
%
G90
G05
T1
X5.865Y-3.73
X6.19Y-3.3
X6.304Y-4.224
X6.54Y-4.13
X6.5425Y-3.3425
X6.56Y-3.625
X6.575Y-3.805
X6.595Y-3.6
X6.63Y-3.9
X6.64Y-4.095
X6.68Y-3.485
X6.8625Y-3.4825
X6.865Y-4.075
X6.9072Y-3.975
X7.105Y-3.6135
X7.105Y-3.645
X7.14Y-3.87
X7.185Y-3.675
T3
X5.98Y-3.045
X5.98Y-3.645
X5.98Y-3.8127
X5.98Y-4.4127
X6.08Y-3.045
X6.08Y-3.645
X6.08Y-3.8127
X6.08Y-4.4127
X6.18Y-3.045
X6.18Y-3.645
X6.18Y-3.8127
X6.18Y-4.4127
X6.28Y-3.045
X6.28Y-3.645
X6.28Y-3.8127
X6.28Y-4.4127
X6.38Y-3.045
X6.38Y-3.645
X6.38Y-3.8127
X6.38Y-4.4127
X6.48Y-3.045
X6.48Y-3.645
X6.48Y-3.8127
X6.48Y-4.4127
T2
G00X5.1104Y-3.5298
M15
G01X5.1341Y-3.5298
M16
G05
G00X5.1104Y-3.8699
M15
G01X5.1341Y-3.8699
M16
G05
G00X5.26Y-3.5298
M15
G01X5.2837Y-3.5298
M16
G05
G00X5.26Y-3.8699
M15
G01X5.2837Y-3.8699
M16
G05
M30
