%TF.GenerationSoftware,KiCad,Pcbnew,8.0.2*%
%TF.CreationDate,2024-05-25T17:49:00-05:00*%
%TF.ProjectId,kicad_timer,6b696361-645f-4746-996d-65722e6b6963,rev?*%
%TF.SameCoordinates,Original*%
%TF.FileFunction,Soldermask,Bot*%
%TF.FilePolarity,Negative*%
%FSLAX46Y46*%
G04 Gerber Fmt 4.6, Leading zero omitted, Abs format (unit mm)*
G04 Created by KiCad (PCBNEW 8.0.2) date 2024-05-25 17:49:00*
%MOMM*%
%LPD*%
G01*
G04 APERTURE LIST*
G04 Aperture macros list*
%AMRoundRect*
0 Rectangle with rounded corners*
0 $1 Rounding radius*
0 $2 $3 $4 $5 $6 $7 $8 $9 X,Y pos of 4 corners*
0 Add a 4 corners polygon primitive as box body*
4,1,4,$2,$3,$4,$5,$6,$7,$8,$9,$2,$3,0*
0 Add four circle primitives for the rounded corners*
1,1,$1+$1,$2,$3*
1,1,$1+$1,$4,$5*
1,1,$1+$1,$6,$7*
1,1,$1+$1,$8,$9*
0 Add four rect primitives between the rounded corners*
20,1,$1+$1,$2,$3,$4,$5,0*
20,1,$1+$1,$4,$5,$6,$7,0*
20,1,$1+$1,$6,$7,$8,$9,0*
20,1,$1+$1,$8,$9,$2,$3,0*%
G04 Aperture macros list end*
%ADD10R,1.500000X1.500000*%
%ADD11C,1.500000*%
%ADD12C,1.750000*%
%ADD13C,3.050000*%
%ADD14C,4.000000*%
%ADD15RoundRect,0.250000X-1.025000X-1.000000X1.025000X-1.000000X1.025000X1.000000X-1.025000X1.000000X0*%
%ADD16C,2.200000*%
%ADD17O,1.700000X1.100000*%
%ADD18RoundRect,0.100000X-0.130000X-0.100000X0.130000X-0.100000X0.130000X0.100000X-0.130000X0.100000X0*%
%ADD19R,1.000000X0.900000*%
%ADD20R,0.550000X1.700000*%
%ADD21R,1.600000X0.550000*%
%ADD22R,0.550000X1.600000*%
G04 APERTURE END LIST*
D10*
%TO.C,U3*%
X151330000Y-93585000D03*
D11*
X153870000Y-93585000D03*
X156410000Y-93585000D03*
X158950000Y-93585000D03*
X161490000Y-93585000D03*
X164030000Y-93585000D03*
X164030000Y-78345000D03*
X161490000Y-78345000D03*
X158950000Y-78345000D03*
X156410000Y-78345000D03*
X153870000Y-78345000D03*
X151330000Y-78345000D03*
%TD*%
D12*
%TO.C,S3*%
X152880000Y-123080000D03*
D13*
X154150000Y-120540000D03*
D14*
X157960000Y-123080000D03*
D13*
X160500000Y-118000000D03*
D12*
X163040000Y-123080000D03*
D15*
X150875000Y-120540000D03*
X163802000Y-118000000D03*
%TD*%
D16*
%TO.C,REF\u002A\u002A*%
X142210000Y-120680000D03*
%TD*%
%TO.C,REF\u002A\u002A*%
X174050000Y-120830000D03*
%TD*%
%TO.C,REF\u002A\u002A*%
X172970000Y-67870000D03*
%TD*%
D10*
%TO.C,U1*%
X151330000Y-113290000D03*
D11*
X153870000Y-113290000D03*
X156410000Y-113290000D03*
X158950000Y-113290000D03*
X161490000Y-113290000D03*
X164030000Y-113290000D03*
X164030000Y-98050000D03*
X161490000Y-98050000D03*
X158950000Y-98050000D03*
X156410000Y-98050000D03*
X153870000Y-98050000D03*
X151330000Y-98050000D03*
%TD*%
D16*
%TO.C,REF\u002A\u002A*%
X143520000Y-67870000D03*
%TD*%
D12*
%TO.C,S3*%
X153100000Y-68542500D03*
D13*
X154370000Y-66002500D03*
D14*
X158180000Y-68542500D03*
D13*
X160720000Y-63462500D03*
D12*
X163260000Y-68542500D03*
D15*
X151095000Y-66002500D03*
X164022000Y-63462500D03*
%TD*%
D17*
%TO.C,J1*%
X188706982Y-99709566D03*
X192506982Y-99709566D03*
X188706982Y-91069566D03*
X192506982Y-91069566D03*
%TD*%
D18*
%TO.C,R1*%
X137500000Y-87500000D03*
X138140000Y-87500000D03*
%TD*%
D19*
%TO.C,S4*%
X131480000Y-102092500D03*
X131480000Y-97992500D03*
X129880000Y-102092500D03*
X129880000Y-97992500D03*
D20*
X132105000Y-100042500D03*
%TD*%
D21*
%TO.C,U2*%
X136430000Y-107342500D03*
X136430000Y-106542500D03*
X136430000Y-105742500D03*
X136430000Y-104942500D03*
X136430000Y-104142500D03*
X136430000Y-103342500D03*
X136430000Y-102542500D03*
X136430000Y-101742500D03*
D22*
X137880000Y-100292500D03*
X138680000Y-100292500D03*
X139480000Y-100292500D03*
X140280000Y-100292500D03*
X141080000Y-100292500D03*
X141880000Y-100292500D03*
X142680000Y-100292500D03*
X143480000Y-100292500D03*
D21*
X144930000Y-101742500D03*
X144930000Y-102542500D03*
X144930000Y-103342500D03*
X144930000Y-104142500D03*
X144930000Y-104942500D03*
X144930000Y-105742500D03*
X144930000Y-106542500D03*
X144930000Y-107342500D03*
D22*
X143480000Y-108792500D03*
X142680000Y-108792500D03*
X141880000Y-108792500D03*
X141080000Y-108792500D03*
X140280000Y-108792500D03*
X139480000Y-108792500D03*
X138680000Y-108792500D03*
X137880000Y-108792500D03*
%TD*%
D18*
%TO.C,R3*%
X144060000Y-87450000D03*
X144700000Y-87450000D03*
%TD*%
D19*
%TO.C,S1*%
X131300000Y-96050000D03*
X131300000Y-91950000D03*
X129700000Y-96050000D03*
X129700000Y-91950000D03*
D20*
X131925000Y-94000000D03*
%TD*%
D18*
%TO.C,R2*%
X140000000Y-87500000D03*
X140640000Y-87500000D03*
%TD*%
M02*
