M48
; DRILL file {KiCad 8.0.2} date 2024-05-25T17:48:58-0500
; FORMAT={-:-/ absolute / inch / decimal}
; #@! TF.CreationDate,2024-05-25T17:48:58-05:00
; #@! TF.GenerationSoftware,Kicad,Pcbnew,8.0.2
; #@! TF.FileFunction,Plated,1,2,PTH
FMAT,2
INCH
; #@! TA.AperFunction,Plated,PTH,ViaDrill
T1C0.0118
; #@! TA.AperFunction,Plated,PTH,ComponentDrill
T2C0.0236
; #@! TA.AperFunction,Plated,PTH,ComponentDrill
T3C0.0394
%
G90
G05
T1
X5.0465Y-3.8206
X5.1252Y-3.5647
X5.1448Y-3.8245
X5.2433Y-3.4466
X5.2433Y-3.5647
X5.2945Y-4.2595
X5.3024Y-3.919
X5.3024Y-4.1946
X5.4528Y-4.1929
X5.4598Y-4.1355
X5.4795Y-4.0568
X5.5386Y-4.4308
X5.5405Y-3.8619
X5.5583Y-3.9997
X5.5583Y-4.3718
X5.5976Y-3.8796
X5.5976Y-4.4111
X5.6173Y-4.0095
X5.6173Y-4.0804
X5.637Y-3.8009
X5.6562Y-4.4117
X5.672Y-3.3567
X5.6764Y-4.3875
X5.6961Y-3.9584
X5.7157Y-3.8206
X5.7748Y-4.1946
X5.7909Y-3.3969
X5.8133Y-4.0804
X5.8237Y-4.2278
X6.0718Y-3.9797
X6.0899Y-3.7616
X6.1291Y-4.0765
X6.1331Y-3.5253
X6.1488Y-3.5844
X6.3457Y-3.4859
X6.4276Y-4.5343
X6.9805Y-4.1808
X7.1689Y-3.6937
T3
X5.9579Y-3.0844
X5.9579Y-3.6844
X5.9579Y-3.8602
X5.9579Y-4.4602
X6.0579Y-3.0844
X6.0579Y-3.6844
X6.0579Y-3.8602
X6.0579Y-4.4602
X6.1579Y-3.0844
X6.1579Y-3.6844
X6.1579Y-3.8602
X6.1579Y-4.4602
X6.2579Y-3.0844
X6.2579Y-3.6844
X6.2579Y-3.8602
X6.2579Y-4.4602
X6.3579Y-3.0844
X6.3579Y-3.6844
X6.3579Y-3.8602
X6.3579Y-4.4602
X6.4579Y-3.0844
X6.4579Y-3.6844
X6.4579Y-3.8602
X6.4579Y-4.4602
T2
G00X7.4176Y-3.5854
M15
G01X7.4412Y-3.5854
M16
G05
G00X7.4176Y-3.9256
M15
G01X7.4412Y-3.9256
M16
G05
G00X7.5672Y-3.5854
M15
G01X7.5908Y-3.5854
M16
G05
G00X7.5672Y-3.9256
M15
G01X7.5908Y-3.9256
M16
G05
M30
