%TF.GenerationSoftware,KiCad,Pcbnew,8.0.3*%
%TF.CreationDate,2024-07-23T23:43:33-05:00*%
%TF.ProjectId,kicad_timer,6b696361-645f-4746-996d-65722e6b6963,rev?*%
%TF.SameCoordinates,Original*%
%TF.FileFunction,Soldermask,Bot*%
%TF.FilePolarity,Negative*%
%FSLAX46Y46*%
G04 Gerber Fmt 4.6, Leading zero omitted, Abs format (unit mm)*
G04 Created by KiCad (PCBNEW 8.0.3) date 2024-07-23 23:43:33*
%MOMM*%
%LPD*%
G01*
G04 APERTURE LIST*
G04 Aperture macros list*
%AMRoundRect*
0 Rectangle with rounded corners*
0 $1 Rounding radius*
0 $2 $3 $4 $5 $6 $7 $8 $9 X,Y pos of 4 corners*
0 Add a 4 corners polygon primitive as box body*
4,1,4,$2,$3,$4,$5,$6,$7,$8,$9,$2,$3,0*
0 Add four circle primitives for the rounded corners*
1,1,$1+$1,$2,$3*
1,1,$1+$1,$4,$5*
1,1,$1+$1,$6,$7*
1,1,$1+$1,$8,$9*
0 Add four rect primitives between the rounded corners*
20,1,$1+$1,$2,$3,$4,$5,0*
20,1,$1+$1,$4,$5,$6,$7,0*
20,1,$1+$1,$6,$7,$8,$9,0*
20,1,$1+$1,$8,$9,$2,$3,0*%
G04 Aperture macros list end*
%ADD10R,1.500000X1.500000*%
%ADD11C,1.500000*%
%ADD12C,3.000000*%
%ADD13C,4.100000*%
%ADD14R,2.550000X2.500000*%
%ADD15RoundRect,0.100000X-0.130000X-0.100000X0.130000X-0.100000X0.130000X0.100000X-0.130000X0.100000X0*%
%ADD16RoundRect,0.100000X-0.100000X0.130000X-0.100000X-0.130000X0.100000X-0.130000X0.100000X0.130000X0*%
%ADD17RoundRect,0.100000X0.130000X0.100000X-0.130000X0.100000X-0.130000X-0.100000X0.130000X-0.100000X0*%
%ADD18R,1.000000X0.900000*%
%ADD19R,0.550000X1.700000*%
%ADD20RoundRect,0.175000X0.425000X-0.175000X0.425000X0.175000X-0.425000X0.175000X-0.425000X-0.175000X0*%
%ADD21RoundRect,0.190000X-0.410000X0.190000X-0.410000X-0.190000X0.410000X-0.190000X0.410000X0.190000X0*%
%ADD22RoundRect,0.200000X-0.400000X0.200000X-0.400000X-0.200000X0.400000X-0.200000X0.400000X0.200000X0*%
%ADD23RoundRect,0.175000X-0.425000X0.175000X-0.425000X-0.175000X0.425000X-0.175000X0.425000X0.175000X0*%
%ADD24RoundRect,0.190000X0.410000X-0.190000X0.410000X0.190000X-0.410000X0.190000X-0.410000X-0.190000X0*%
%ADD25RoundRect,0.200000X0.400000X-0.200000X0.400000X0.200000X-0.400000X0.200000X-0.400000X-0.200000X0*%
%ADD26O,1.700000X1.100000*%
%ADD27R,1.600000X0.550000*%
%ADD28R,0.550000X1.600000*%
G04 APERTURE END LIST*
D10*
%TO.C,U3*%
X164592000Y-96843000D03*
D11*
X162052000Y-96843000D03*
X159512000Y-96843000D03*
X156972000Y-96843000D03*
X154432000Y-96843000D03*
X151892000Y-96843000D03*
X151892000Y-112083000D03*
X154432000Y-112083000D03*
X156972000Y-112083000D03*
X159512000Y-112083000D03*
X162052000Y-112083000D03*
X164592000Y-112083000D03*
%TD*%
D10*
%TO.C,U1*%
X151892000Y-92583000D03*
D11*
X154432000Y-92583000D03*
X156972000Y-92583000D03*
X159512000Y-92583000D03*
X162052000Y-92583000D03*
X164592000Y-92583000D03*
X164592000Y-77343000D03*
X162052000Y-77343000D03*
X159512000Y-77343000D03*
X156972000Y-77343000D03*
X154432000Y-77343000D03*
X151892000Y-77343000D03*
%TD*%
D12*
%TO.C,S3*%
X160768500Y-117581000D03*
D13*
X158228500Y-122661000D03*
D12*
X154418500Y-120121000D03*
D14*
X151143500Y-120121000D03*
X164070500Y-117581000D03*
%TD*%
D15*
%TO.C,R2*%
X138745000Y-89789000D03*
X139385000Y-89789000D03*
%TD*%
D16*
%TO.C,R5*%
X136017000Y-93533000D03*
X136017000Y-94173000D03*
%TD*%
D17*
%TO.C,R1*%
X139385000Y-88039000D03*
X138745000Y-88039000D03*
%TD*%
D12*
%TO.C,S2*%
X155702000Y-71934821D03*
D13*
X158242000Y-66854821D03*
D12*
X162052000Y-69394821D03*
D14*
X165327000Y-69394821D03*
X152400000Y-71934821D03*
%TD*%
D18*
%TO.C,S1*%
X134328000Y-82659000D03*
X134328000Y-86759000D03*
X135928000Y-82659000D03*
X135928000Y-86759000D03*
D19*
X133703000Y-84709000D03*
%TD*%
D16*
%TO.C,R4*%
X135890000Y-96073000D03*
X135890000Y-96713000D03*
%TD*%
%TO.C,R6*%
X136017000Y-90612000D03*
X136017000Y-91252000D03*
%TD*%
D18*
%TO.C,S4*%
X134328000Y-77071000D03*
X134328000Y-81171000D03*
X135928000Y-77071000D03*
X135928000Y-81171000D03*
D19*
X133703000Y-79121000D03*
%TD*%
D20*
%TO.C,J1*%
X133985000Y-94476000D03*
D21*
X133985000Y-92456000D03*
D22*
X133985000Y-91226000D03*
D23*
X133985000Y-93476000D03*
D24*
X133985000Y-95496000D03*
D25*
X133985000Y-96726000D03*
D26*
X130105000Y-98296000D03*
X133905000Y-98296000D03*
X130105000Y-89656000D03*
X133905000Y-89656000D03*
%TD*%
D27*
%TO.C,U2*%
X178494000Y-91815000D03*
X178494000Y-92615000D03*
X178494000Y-93415000D03*
X178494000Y-94215000D03*
X178494000Y-95015000D03*
X178494000Y-95815000D03*
X178494000Y-96615000D03*
X178494000Y-97415000D03*
D28*
X177044000Y-98865000D03*
X176244000Y-98865000D03*
X175444000Y-98865000D03*
X174644000Y-98865000D03*
X173844000Y-98865000D03*
X173044000Y-98865000D03*
X172244000Y-98865000D03*
X171444000Y-98865000D03*
D27*
X169994000Y-97415000D03*
X169994000Y-96615000D03*
X169994000Y-95815000D03*
X169994000Y-95015000D03*
X169994000Y-94215000D03*
X169994000Y-93415000D03*
X169994000Y-92615000D03*
X169994000Y-91815000D03*
D28*
X171444000Y-90365000D03*
X172244000Y-90365000D03*
X173044000Y-90365000D03*
X173844000Y-90365000D03*
X174644000Y-90365000D03*
X175444000Y-90365000D03*
X176244000Y-90365000D03*
X177044000Y-90365000D03*
%TD*%
D17*
%TO.C,R3*%
X139385000Y-91539000D03*
X138745000Y-91539000D03*
%TD*%
M02*
